<?xml version="1.0" encoding="UTF-8"?>
<svg version="1.1" xmlns="http://www.w3.org/2000/svg" width="500" height="500">
<path d="M0 0 C0.75587402 0.25620117 1.51174805 0.51240234 2.29052734 0.77636719 C20.44338761 7.04900089 36.6948955 16.48678917 52 28 C53.29554723 28.88805831 54.59112026 29.77607898 55.88671875 30.6640625 C56.91410156 31.43492188 57.94148438 32.20578125 59 33 C59 33.66 59 34.32 59 35 C59.79277344 35.31904297 59.79277344 35.31904297 60.6015625 35.64453125 C63.94168304 37.53218895 66.59448498 40.07790359 69.375 42.6875 C69.95209717 43.22552246 70.52919434 43.76354492 71.1237793 44.31787109 C75.03932072 48.00550039 78.73627263 51.71052974 82 56 C82 56.66 82 57.32 82 58 C82.66 58 83.32 58 84 58 C84 58.66 84 59.32 84 60 C84.66 60 85.32 60 86 60 C87.26513672 61.46533203 87.26513672 61.46533203 88.6796875 63.5078125 C89.19660156 64.24773437 89.71351563 64.98765625 90.24609375 65.75 C90.78363281 66.53375 91.32117188 67.3175 91.875 68.125 C92.40480469 68.88554687 92.93460937 69.64609375 93.48046875 70.4296875 C94.51838912 71.92346868 95.55075931 73.42112379 96.57714844 74.92285156 C97.46502391 76.21901569 98.3625515 77.50868336 99.27441406 78.78808594 C102 82.67114537 102 82.67114537 102 86 C102.66 86 103.32 86 104 86 C108.85821969 95.27254114 113.1604014 104.51424122 116.67578125 114.37890625 C117.56002566 116.79688432 118.51688803 119.18949675 119.54296875 121.55078125 C124.52571445 133.34639642 126.11701266 146.04788673 127.70141602 158.65673828 C127.96807745 160.74947455 128.26701865 162.83803934 128.5703125 164.92578125 C134.57259471 213.68287526 117.20608042 262.33474326 89.0625 301.375 C88.35323364 302.36705444 88.35323364 302.36705444 87.62963867 303.37915039 C86.47071182 304.95812773 85.24132618 306.48494548 84 308 C83.34 308 82.68 308 82 308 C81.71125 308.598125 81.4225 309.19625 81.125 309.8125 C80 312 80 312 78 315 C77.34 315 76.68 315 76 315 C75.73123047 315.59780273 75.46246094 316.19560547 75.18554688 316.81152344 C73.99459452 319.00997833 72.8561326 320.32946957 71.03125 322.015625 C70.46019531 322.54414063 69.88914062 323.07265625 69.30078125 323.6171875 C68.70652344 324.15601563 68.11226563 324.69484375 67.5 325.25 C66.90574219 325.80429687 66.31148438 326.35859375 65.69921875 326.9296875 C61.25796644 331 61.25796644 331 59 331 C59 331.66 59 332.32 59 333 C57.55395508 334.29345703 57.55395508 334.29345703 55.51953125 335.7578125 C54.77469482 336.29688232 54.0298584 336.83595215 53.26245117 337.39135742 C52.45396729 337.96345947 51.6454834 338.53556152 50.8125 339.125 C49.98532471 339.71321533 49.15814941 340.30143066 48.3059082 340.9074707 C32.21673106 352.26150734 14.86589886 362.03613213 -4 368 C-4.93714844 368.32226562 -5.87429688 368.64453125 -6.83984375 368.9765625 C-13.47187197 371.16772441 -20.16637482 372.78150496 -27 374.1875 C-27.79398193 374.35443359 -28.58796387 374.52136719 -29.40600586 374.69335938 C-40.8209796 376.94462335 -52.33742729 377.16619381 -63.93847656 377.13037109 C-65.99812169 377.12500489 -68.05754886 377.13035882 -70.1171875 377.13671875 C-81.75171742 377.14427759 -93.20922049 376.67129976 -104.625 374.3125 C-105.46546875 374.14097412 -106.3059375 373.96944824 -107.171875 373.79272461 C-135.42266723 367.76571324 -160.85308365 354.9907865 -184.1875 338.1875 C-184.86071289 337.70676025 -185.53392578 337.22602051 -186.22753906 336.73071289 C-187.85662133 335.53770452 -189.43383902 334.27448727 -191 333 C-191 332.34 -191 331.68 -191 331 C-191.56074219 330.75636719 -192.12148437 330.51273437 -192.69921875 330.26171875 C-201.35520942 325.51488516 -210.24859354 316.05196904 -216 308 C-216 307.34 -216 306.68 -216 306 C-216.66 306 -217.32 306 -218 306 C-219.37280273 304.42700195 -219.37280273 304.42700195 -220.93359375 302.23828125 C-221.7834082 301.05395508 -221.7834082 301.05395508 -222.65039062 299.84570312 C-223.24013672 299.00974609 -223.82988281 298.17378906 -224.4375 297.3125 C-225.02337891 296.49587891 -225.60925781 295.67925781 -226.21289062 294.83789062 C-234 283.92179519 -234 283.92179519 -234 280 C-234.66 280 -235.32 280 -236 280 C-240.90939871 270.51012011 -245.44407991 261.09606895 -249 251 C-249.35940674 250.01507568 -249.35940674 250.01507568 -249.72607422 249.01025391 C-265.66268091 205.22248167 -264.62643952 157.61111232 -249 114 C-248.59910156 112.84757812 -248.19820312 111.69515625 -247.78515625 110.5078125 C-241.4512877 93.0630163 -231.32562514 77.59188905 -220 63 C-219.34773438 62.14019531 -218.69546875 61.28039062 -218.0234375 60.39453125 C-187.79719656 21.82398055 -141.86927271 -2.94784705 -93.51953125 -9.625 C-61.71237053 -13.01399826 -30.29381297 -10.38035356 0 0 Z M-181 116 C-181 116.66 -181 117.32 -181 118 C-181.66 118 -182.32 118 -183 118 C-183 118.66 -183 119.32 -183 120 C-183.66 120 -184.32 120 -185 120 C-185 120.66 -185 121.32 -185 122 C-185.66 122 -186.32 122 -187 122 C-204.23926577 142.21928755 -212.02418521 167.85785664 -212.125 194.0625 C-212.12967285 194.90143799 -212.1343457 195.74037598 -212.13916016 196.60473633 C-212.10132489 211.46380865 -208.51401579 225.77795795 -198.12109375 237.03515625 C-190.68500518 243.88916352 -181.92525772 248.11828743 -171.64453125 247.96484375 C-169.39608483 247.75199598 -167.2185689 247.42027535 -165 247 C-164.34386719 246.8865625 -163.68773437 246.773125 -163.01171875 246.65625 C-152.19309656 244.40146702 -144.44301655 238.94939085 -138 230 C-136.58925236 227.29413977 -135.82014059 224.97300962 -135 222 C-134.81566406 221.42507813 -134.63132812 220.85015625 -134.44140625 220.2578125 C-133.79125063 216.93223772 -133.89605398 213.62306862 -133.9375 210.25 C-133.94201172 209.55261719 -133.94652344 208.85523438 -133.95117188 208.13671875 C-133.9628998 206.42444197 -133.98083347 204.71220967 -134 203 C-136.09798826 205.07608859 -138.12619253 207.14531262 -140.0625 209.375 C-147.86481845 216.34728457 -155.95070455 219.36747546 -166.25 219.203125 C-170.94324251 218.85646504 -174.26542667 217.70996945 -177.65234375 214.37109375 C-184.42436101 206.17513154 -185.54349142 196.71542297 -185.4375 186.375 C-185.42920166 185.32393066 -185.42090332 184.27286133 -185.41235352 183.18994141 C-185.09381181 168.37831911 -181.37656458 153.74580286 -172.28515625 141.734375 C-170.80154754 140.09195132 -170.80154754 140.09195132 -171 138 C-170.34 138 -169.68 138 -169 138 C-169 137.34 -169 136.68 -169 136 C-168.34 136 -167.68 136 -167 136 C-167 135.34 -167 134.68 -167 134 C-166.34 134 -165.68 134 -165 134 C-165 133.34 -165 132.68 -165 132 C-164.2575 131.71125 -163.515 131.4225 -162.75 131.125 C-160.09167265 130.12653137 -160.09167265 130.12653137 -158.1875 128.875 C-154.79086864 127.51634746 -151.63899603 127.87870013 -148 128 C-145.67507787 133.5102485 -145.76625489 138.51112885 -145.875 144.375 C-145.88402344 145.30183594 -145.89304687 146.22867188 -145.90234375 147.18359375 C-145.92577063 149.45600077 -145.95857252 151.7278618 -146 154 C-143.95863605 154.05451714 -141.91684144 154.09302485 -139.875 154.125 C-138.73804688 154.14820313 -137.60109375 154.17140625 -136.4296875 154.1953125 C-132.87155853 153.99268557 -130.24319606 153.47289253 -127 152 C-121.82468787 144.86510366 -122.32949277 132.35899011 -123 124 C-123.75948208 121.12103306 -124.74629706 118.71635638 -126 116 C-126.66 116 -127.32 116 -128 116 C-128 115.34 -128 114.68 -128 114 C-135.7322241 107.87203174 -143.76572102 104.355689 -153.71875 104.69140625 C-163.60273105 106.02845163 -172.97305146 110.12803404 -181 116 Z M-111.62876892 109.03889465 C-113.29523584 112.63754713 -113.8414646 116.08222056 -114.30273438 119.97705078 C-114.40564285 120.76656128 -114.50855133 121.55607178 -114.61457825 122.36950684 C-114.95177929 124.97685131 -115.2726859 127.58593611 -115.59375 130.1953125 C-115.82780996 132.02608956 -116.06297672 133.85672542 -116.29919434 135.68722534 C-116.91958587 140.51526792 -117.52659096 145.34489666 -118.13031006 150.17504883 C-119.09272416 157.85465895 -120.07687765 165.53152226 -121.05818176 173.20873642 C-121.39559742 175.86155999 -121.72828161 178.51493839 -122.05993652 181.16848755 C-123.39622655 191.78475084 -124.94790796 202.34994912 -126.66439819 212.91122055 C-128.34973098 223.4007007 -129.2191888 233.36934304 -129 244 C-121.41 244 -113.82 244 -106 244 C-103.56615646 228.34680323 -101.19833131 212.68809165 -99 197 C-96.03 197 -93.06 197 -90 197 C-89.87753906 197.66386719 -89.75507813 198.32773437 -89.62890625 199.01171875 C-86.11834429 215.69233924 -79.87655214 235.72350937 -65.89453125 246.64453125 C-63.96108286 247.90326782 -62.07966271 249.00375439 -60 250 C-58.90751953 250.54914063 -58.90751953 250.54914063 -57.79296875 251.109375 C-53.98494846 252.32368077 -50.47120972 252.29115243 -46.5 252.25 C-45.75363281 252.25773438 -45.00726563 252.26546875 -44.23828125 252.2734375 C-40.0421752 252.25858403 -36.83148212 251.91574106 -33 250 C-33 249.34 -33 248.68 -33 248 C-32.13761719 247.85498047 -32.13761719 247.85498047 -31.2578125 247.70703125 C-28.5180228 246.84906942 -27.01621002 245.58853627 -24.875 243.6875 C-24.19179688 243.09324219 -23.50859375 242.49898437 -22.8046875 241.88671875 C-21.01090834 240.01140418 -20.01560092 238.3714805 -19 236 C-21.86049049 233.13950951 -24.00636499 233.72967189 -28 233.625 C-37.46263985 233.1668209 -45.03384191 230.88569753 -52.05078125 224.32421875 C-56.17147655 219.41076443 -59.06396427 213.67025969 -62 208 C-62.54011719 206.97519531 -63.08023438 205.95039063 -63.63671875 204.89453125 C-65.85568274 200.18320655 -67.31694111 196.17669936 -66 191 C-62.95401178 187.88874061 -59.79802272 185.56543114 -56.171875 183.19140625 C-53.37528891 181.25928212 -51.69806929 179.89779216 -50 177 C-50 176.34 -50 175.68 -50 175 C-49.34 175 -48.68 175 -48 175 C-47.0297679 173.34023188 -46.07444327 171.671747 -45.125 170 C-44.59132813 169.071875 -44.05765625 168.14375 -43.5078125 167.1875 C-40.06387936 159.90706103 -39.63590839 153.05540061 -39.625 145.125 C-39.58826172 143.73087891 -39.58826172 143.73087891 -39.55078125 142.30859375 C-39.51529965 133.82849038 -42.22545501 127.45361246 -46 120 C-46.66 120 -47.32 120 -48 120 C-48 119.34 -48 118.68 -48 118 C-48.66 118 -49.32 118 -50 118 C-50 117.34 -50 116.68 -50 116 C-50.66 116 -51.32 116 -52 116 C-52 115.34 -52 114.68 -52 114 C-53.57329872 113.18857428 -55.15954344 112.40225702 -56.75 111.625 C-57.63171875 111.18414062 -58.5134375 110.74328125 -59.421875 110.2890625 C-69.5021982 106.65750502 -80.10207133 106.59983168 -90.6940918 106.57446289 C-93.09066108 106.56235776 -95.48481477 106.51282344 -97.88085938 106.46289062 C-99.41144595 106.45344583 -100.94204805 106.44620154 -102.47265625 106.44140625 C-103.18511002 106.42187393 -103.89756378 106.40234161 -104.63160706 106.38221741 C-108.71638139 106.40961527 -108.71638139 106.40961527 -111.62876892 109.03889465 Z M-20 111 C-20.92066302 113.34615314 -20.92066302 113.34615314 -21.52734375 116 C-21.77597168 116.98484375 -22.02459961 117.9696875 -22.28076172 118.984375 C-22.51811035 119.97953125 -22.75545898 120.9746875 -23 122 C-23.31541748 123.30710938 -23.31541748 123.30710938 -23.63720703 124.640625 C-24.29494108 127.42362641 -24.9307367 130.21099059 -25.5625 133 C-26.08282779 135.27615729 -26.60370411 137.55218923 -27.125 139.828125 C-27.41632813 141.10107422 -27.70765625 142.37402344 -28.0078125 143.68554688 C-29.56862316 150.48599415 -31.15672989 157.28011944 -32.74072266 164.07519531 C-33.62055582 167.84999751 -34.49778467 171.62538938 -35.37255859 175.40136719 C-38.93189545 190.7603693 -38.93189545 190.7603693 -40.7890625 198.40625 C-41.03261475 199.42493164 -41.27616699 200.44361328 -41.52709961 201.49316406 C-41.94737459 203.24759846 -42.37687175 204.99986816 -42.81860352 206.74902344 C-43.93599447 211.46655758 -44.12460025 215.17941622 -43 220 C-40.48763535 223.31991043 -38.00668367 224.93155102 -34 226 C-30.99153014 226.15194292 -28.00913478 226.11800529 -25 226 C-22.18909134 220.10786354 -20.76178626 214.24069031 -19.40625 207.87109375 C-19.05705505 206.27105247 -19.05705505 206.27105247 -18.70080566 204.63868713 C-17.96062667 201.23968035 -17.23018305 197.83866657 -16.5 194.4375 C-16.00975322 192.17889774 -15.51887369 189.92043273 -15.02734375 187.66210938 C-12.47675662 176.00732798 -12.47675662 176.00732798 -10.05859375 164.32470703 C-9.80207031 163.05353027 -9.54554688 161.78235352 -9.28125 160.47265625 C-9.07564453 159.4144165 -8.87003906 158.35617676 -8.65820312 157.26586914 C-8.44099609 156.51813232 -8.22378906 155.77039551 -8 155 C-7.34 154.67 -6.68 154.34 -6 154 C-5.91363281 154.66 -5.82726562 155.32 -5.73828125 156 C-4.53187464 164.50018605 -2.82026883 172.85374545 -1.03735352 181.2487793 C0.89414559 190.37969536 2.66550295 199.53723155 4.38793945 208.7097168 C4.58476318 209.75039307 4.78158691 210.79106934 4.984375 211.86328125 C5.15678711 212.78407471 5.32919922 213.70486816 5.50683594 214.65356445 C5.98203401 217.1366676 5.98203401 217.1366676 7 220 C12.04107653 220.49849185 12.04107653 220.49849185 16.390625 218.21875 C20.32258596 213.98726811 22.28574751 208.41361009 24.5625 203.1875 C25.50009972 201.07628853 26.43887877 198.96560037 27.37890625 196.85546875 C28.04539185 195.34956177 28.04539185 195.34956177 28.7253418 193.81323242 C29.84446484 191.34327364 31.01524411 188.91767637 32.2421875 186.5 C33.53808815 183.91971782 34.59574198 181.51158567 35.5625 178.8125 C36.38404441 176.52895988 37.17124103 174.71708003 38.4375 172.625 C40.92286841 168.44958107 44 162.94336431 44 158 C44.99 158 45.98 158 47 158 C46.93402115 158.70274048 46.8680423 159.40548096 46.80006409 160.1295166 C46.08788916 168.11526653 45.71523552 176.0814749 45.46484375 184.09375 C45.42186661 185.40226929 45.37888947 186.71078857 45.33460999 188.05895996 C45.24452414 190.80861758 45.15648864 193.55833025 45.07006836 196.30810547 C44.96030959 199.79749863 44.84613098 203.28672967 44.73049068 206.77593231 C44.61903587 210.15263884 44.51078292 213.52944525 44.40234375 216.90625 C44.34142799 218.75833069 44.34142799 218.75833069 44.27928162 220.64782715 C43.83761989 231.82469693 43.83761989 231.82469693 44 243 C45.05950052 244.28426897 45.05950052 244.28426897 47.50024414 244.11352539 C48.58426514 244.10828857 49.66828613 244.10305176 50.78515625 244.09765625 C51.95498047 244.09443359 53.12480469 244.09121094 54.33007812 244.08789062 C55.56177734 244.07951172 56.79347656 244.07113281 58.0625 244.0625 C59.29806641 244.05798828 60.53363281 244.05347656 61.80664062 244.04882812 C64.87114117 244.03699608 67.93554721 244.02051173 71 244 C72.12493203 240.62520392 72.1204105 238.09756554 72.11303711 234.53930664 C72.11284388 233.87765692 72.11265064 233.21600719 72.11245155 232.53430748 C72.11013871 230.30538038 72.10015794 228.07655978 72.08984375 225.84765625 C72.08578925 224.24723871 72.08196535 222.64682058 72.07835388 221.04640198 C72.02280833 201.60210814 71.83368807 182.15827067 71.62768555 162.71508789 C71.57155915 157.39617678 71.52178529 152.07722414 71.47328281 146.75823879 C71.43448599 142.61738007 71.39138907 138.47657441 71.34705925 134.33577156 C71.32674004 132.37055087 71.30801045 130.40531305 71.29092598 128.44006157 C71.26693865 125.72876926 71.23691002 123.01760938 71.20532227 120.30639648 C71.1995668 119.50412125 71.19381134 118.70184601 71.18788147 117.8752594 C71.14508341 114.66342377 71.02284995 112.06854986 70 109 C57.83375811 107.16854763 57.83375811 107.16854763 46 109.1875 C43.67385785 111.29556632 42.32054178 113.15040985 41 116 C41 117.32 41 118.64 41 120 C40.34 120 39.68 120 39 120 C38.608125 121.093125 38.21625 122.18625 37.8125 123.3125 C36.57001519 126.63353416 35.17997984 129.84644667 33.6875 133.0625 C31.66275682 137.44540215 29.82691332 141.88246161 28.0625 146.375 C26.06643047 151.41556004 24.00846964 156.4177616 21.8125 161.375 C21.11060547 162.96441406 21.11060547 162.96441406 20.39453125 164.5859375 C19 167 19 167 16 168 C16.01675781 167.01 16.03351563 166.02 16.05078125 165 C16.04774491 160.96774478 15.67056077 157.00011479 15.1875 153 C15.09984375 152.26233398 15.0121875 151.52466797 14.921875 150.76464844 C14.15458998 144.62899593 13.0047948 138.63192121 11.72265625 132.58203125 C10.80723924 128.04453181 10.14709036 123.4884687 9.52734375 118.90234375 C8.95690343 115.76280926 8.21112949 112.95448542 7 110 C2.62760012 107.08506675 -1.35802061 107.67029123 -6.5 107.6875 C-7.46292969 107.67138672 -8.42585938 107.65527344 -9.41796875 107.63867188 C-10.34222656 107.63802734 -11.26648438 107.63738281 -12.21875 107.63671875 C-13.06373047 107.63373779 -13.90871094 107.63075684 -14.77929688 107.62768555 C-17.55849837 108.09363567 -18.35584884 108.73050797 -20 111 Z " fill="#1D77C9" transform="translate(316,67)"/>
<path d="M0 0 C0.75587402 0.25620117 1.51174805 0.51240234 2.29052734 0.77636719 C20.44338761 7.04900089 36.6948955 16.48678917 52 28 C53.29554723 28.88805831 54.59112026 29.77607898 55.88671875 30.6640625 C56.91410156 31.43492188 57.94148438 32.20578125 59 33 C59 33.66 59 34.32 59 35 C59.79277344 35.31904297 59.79277344 35.31904297 60.6015625 35.64453125 C63.94168304 37.53218895 66.59448498 40.07790359 69.375 42.6875 C69.95209717 43.22552246 70.52919434 43.76354492 71.1237793 44.31787109 C75.03932072 48.00550039 78.73627263 51.71052974 82 56 C82 56.66 82 57.32 82 58 C82.66 58 83.32 58 84 58 C84 58.66 84 59.32 84 60 C84.66 60 85.32 60 86 60 C87.26513672 61.46533203 87.26513672 61.46533203 88.6796875 63.5078125 C89.19660156 64.24773437 89.71351563 64.98765625 90.24609375 65.75 C90.78363281 66.53375 91.32117188 67.3175 91.875 68.125 C92.40480469 68.88554687 92.93460937 69.64609375 93.48046875 70.4296875 C94.51838912 71.92346868 95.55075931 73.42112379 96.57714844 74.92285156 C97.46502391 76.21901569 98.3625515 77.50868336 99.27441406 78.78808594 C102 82.67114537 102 82.67114537 102 86 C102.66 86 103.32 86 104 86 C108.85821969 95.27254114 113.1604014 104.51424122 116.67578125 114.37890625 C117.56002566 116.79688432 118.51688803 119.18949675 119.54296875 121.55078125 C124.52571445 133.34639642 126.11701266 146.04788673 127.70141602 158.65673828 C127.96807745 160.74947455 128.26701865 162.83803934 128.5703125 164.92578125 C134.57259471 213.68287526 117.20608042 262.33474326 89.0625 301.375 C88.35323364 302.36705444 88.35323364 302.36705444 87.62963867 303.37915039 C86.47071182 304.95812773 85.24132618 306.48494548 84 308 C83.34 308 82.68 308 82 308 C81.71125 308.598125 81.4225 309.19625 81.125 309.8125 C80 312 80 312 78 315 C77.34 315 76.68 315 76 315 C75.73123047 315.59780273 75.46246094 316.19560547 75.18554688 316.81152344 C73.99459452 319.00997833 72.8561326 320.32946957 71.03125 322.015625 C70.46019531 322.54414063 69.88914062 323.07265625 69.30078125 323.6171875 C68.70652344 324.15601563 68.11226563 324.69484375 67.5 325.25 C66.90574219 325.80429687 66.31148438 326.35859375 65.69921875 326.9296875 C61.25796644 331 61.25796644 331 59 331 C59 331.66 59 332.32 59 333 C57.55395508 334.29345703 57.55395508 334.29345703 55.51953125 335.7578125 C54.77469482 336.29688232 54.0298584 336.83595215 53.26245117 337.39135742 C52.45396729 337.96345947 51.6454834 338.53556152 50.8125 339.125 C49.98532471 339.71321533 49.15814941 340.30143066 48.3059082 340.9074707 C32.21673106 352.26150734 14.86589886 362.03613213 -4 368 C-4.93714844 368.32226562 -5.87429688 368.64453125 -6.83984375 368.9765625 C-13.47187197 371.16772441 -20.16637482 372.78150496 -27 374.1875 C-27.79398193 374.35443359 -28.58796387 374.52136719 -29.40600586 374.69335938 C-40.8209796 376.94462335 -52.33742729 377.16619381 -63.93847656 377.13037109 C-65.99812169 377.12500489 -68.05754886 377.13035882 -70.1171875 377.13671875 C-81.75171742 377.14427759 -93.20922049 376.67129976 -104.625 374.3125 C-105.46546875 374.14097412 -106.3059375 373.96944824 -107.171875 373.79272461 C-135.42266723 367.76571324 -160.85308365 354.9907865 -184.1875 338.1875 C-184.86071289 337.70676025 -185.53392578 337.22602051 -186.22753906 336.73071289 C-187.85662133 335.53770452 -189.43383902 334.27448727 -191 333 C-191 332.34 -191 331.68 -191 331 C-191.56074219 330.75636719 -192.12148437 330.51273437 -192.69921875 330.26171875 C-201.35520942 325.51488516 -210.24859354 316.05196904 -216 308 C-216 307.34 -216 306.68 -216 306 C-216.66 306 -217.32 306 -218 306 C-219.37280273 304.42700195 -219.37280273 304.42700195 -220.93359375 302.23828125 C-221.7834082 301.05395508 -221.7834082 301.05395508 -222.65039062 299.84570312 C-223.24013672 299.00974609 -223.82988281 298.17378906 -224.4375 297.3125 C-225.02337891 296.49587891 -225.60925781 295.67925781 -226.21289062 294.83789062 C-234 283.92179519 -234 283.92179519 -234 280 C-234.66 280 -235.32 280 -236 280 C-240.90939871 270.51012011 -245.44407991 261.09606895 -249 251 C-249.35940674 250.01507568 -249.35940674 250.01507568 -249.72607422 249.01025391 C-265.66268091 205.22248167 -264.62643952 157.61111232 -249 114 C-248.59910156 112.84757812 -248.19820312 111.69515625 -247.78515625 110.5078125 C-241.4512877 93.0630163 -231.32562514 77.59188905 -220 63 C-219.34773438 62.14019531 -218.69546875 61.28039062 -218.0234375 60.39453125 C-187.79719656 21.82398055 -141.86927271 -2.94784705 -93.51953125 -9.625 C-61.71237053 -13.01399826 -30.29381297 -10.38035356 0 0 Z M-143 18 C-143 18.66 -143 19.32 -143 20 C-144.258125 20.37125 -145.51625 20.7425 -146.8125 21.125 C-152.59879115 23.04462266 -157.74645368 25.94339123 -163 29 C-163.93328125 29.515625 -164.8665625 30.03125 -165.828125 30.5625 C-166.54484375 31.036875 -167.2615625 31.51125 -168 32 C-168 32.66 -168 33.32 -168 34 C-168.66 34 -169.32 34 -170 34 C-170 34.66 -170 35.32 -170 36 C-170.56203125 36.10441406 -171.1240625 36.20882812 -171.703125 36.31640625 C-174.42380471 37.12613235 -176.39257807 38.36203338 -178.75 39.9375 C-179.54921875 40.46214844 -180.3484375 40.98679688 -181.171875 41.52734375 C-181.77515625 42.01332031 -182.3784375 42.49929687 -183 43 C-183 43.66 -183 44.32 -183 45 C-183.556875 45.2475 -184.11375 45.495 -184.6875 45.75 C-187.42410913 47.22924818 -189.67650869 48.93467439 -192 51 C-192 51.66 -192 52.32 -192 53 C-192.59167969 53.25523438 -193.18335938 53.51046875 -193.79296875 53.7734375 C-196.22592458 55.12555809 -197.53495057 56.49533457 -199.3125 58.625 C-200.21935547 59.69814453 -200.21935547 59.69814453 -201.14453125 60.79296875 C-201.75683594 61.52128906 -202.36914062 62.24960938 -203 63 C-204.16458161 64.31435042 -205.33121556 65.62688553 -206.5 66.9375 C-211.97180754 73.21903691 -216.97006075 79.46420001 -220.859375 86.859375 C-222.15658702 89.29386879 -223.57443451 91.63856708 -225 94 C-231.64913162 105.4543864 -236.69259382 117.25776873 -240.43969727 129.93432617 C-241.91215152 134.91215152 -241.91215152 134.91215152 -243 136 C-247.21778428 150.6176536 -247.39393747 165.86122931 -247.375 180.9375 C-247.37654083 181.80310547 -247.37808167 182.66871094 -247.37966919 183.56054688 C-247.37668767 198.38818822 -246.80242332 213.28586058 -242.6875 227.625 C-242.4716626 228.40858887 -242.2558252 229.19217773 -242.03344727 229.99951172 C-239.06207662 240.60862866 -235.72440273 251.02626089 -231 261 C-230.34 261 -229.68 261 -229 261 C-228.979375 261.94875 -228.95875 262.8975 -228.9375 263.875 C-228.283209 268.57830924 -225.62788223 271.69788071 -222.84765625 275.42578125 C-220.5926412 278.5675464 -218.81068809 281.8522815 -217.04296875 285.28515625 C-216.10554391 287.1688102 -216.10554391 287.1688102 -214 288 C-213.731875 288.7425 -213.46375 289.485 -213.1875 290.25 C-211.71626484 293.6570709 -209.63527608 295.39122813 -207 298 C-204.61735994 300.88958476 -202.3026047 303.82508948 -199.98828125 306.76953125 C-199.33214844 307.50558594 -198.67601562 308.24164063 -198 309 C-197.34 309 -196.68 309 -196 309 C-195.505 310.485 -195.505 310.485 -195 312 C-194.34 312 -193.68 312 -193 312 C-192.690625 312.8353125 -192.690625 312.8353125 -192.375 313.6875 C-190.42316968 316.97012371 -188.05769006 318.70673246 -185 321 C-184.34 321 -183.68 321 -183 321 C-183 321.66 -183 322.32 -183 323 C-181.34873395 324.48342854 -181.34873395 324.48342854 -179.25 325.9375 C-178.55390625 326.44152344 -177.8578125 326.94554687 -177.140625 327.46484375 C-176.08101562 328.22474609 -176.08101562 328.22474609 -175 329 C-174.31421875 329.55816406 -173.6284375 330.11632812 -172.921875 330.69140625 C-170.97422289 332.2814077 -170.97422289 332.2814077 -168 332 C-168 332.66 -168 333.32 -168 334 C-147.87367218 348.76383238 -122.1712303 357.07216324 -98 362 C-97.18692383 362.18691406 -96.37384766 362.37382812 -95.53613281 362.56640625 C-87.05818672 364.36872875 -78.61994589 364.30894803 -70 364.25 C-68.84162628 364.2463443 -68.84162628 364.2463443 -67.65985107 364.24261475 C-47.43165373 364.57700227 -47.43165373 364.57700227 -28 360 C-24.74882899 359.19527649 -21.47050297 358.53600731 -18.1875 357.875 C-16.86202148 357.60236328 -16.86202148 357.60236328 -15.50976562 357.32421875 C-13.34065469 356.87867164 -11.17076577 356.43740023 -9 356 C-9 355.34 -9 354.68 -9 354 C-8.39414062 353.91363281 -7.78828125 353.82726562 -7.1640625 353.73828125 C-1.27900043 352.75140161 3.44807434 351.0257957 8.703125 348.21875 C11 347 11 347 14.4375 345.5625 C21.90483487 342.28735313 28.94495684 338.07624716 36 334 C36 333.34 36 332.68 36 332 C37.1446875 331.566875 37.1446875 331.566875 38.3125 331.125 C41.15029308 330.03730987 41.15029308 330.03730987 44 328 C44 327.34 44 326.68 44 326 C45.32 325.67 46.64 325.34 48 325 C48 324.34 48 323.68 48 323 C48.66 323 49.32 323 50 323 C50 322.34 50 321.68 50 321 C50.57621094 320.74089844 51.15242188 320.48179687 51.74609375 320.21484375 C54.17809787 318.90400618 56.00712421 317.40402166 58.0625 315.5625 C58.73410156 314.96566406 59.40570313 314.36882812 60.09765625 313.75390625 C60.72542969 313.17511719 61.35320312 312.59632813 62 312 C62.57621094 311.47277344 63.15242188 310.94554687 63.74609375 310.40234375 C65.22218401 309.0650443 65.22218401 309.0650443 65 307 C65.556875 306.814375 66.11375 306.62875 66.6875 306.4375 C69.56285672 304.6501161 70.9118075 302.55027255 72.75390625 299.75390625 C74 298 74 298 75.65234375 296.40234375 C77.23096933 295.08381268 77.23096933 295.08381268 77 293 C77.66 293 78.32 293 79 293 C80.45378742 291.22581452 80.45378742 291.22581452 81.8984375 288.90625 C82.46046875 288.04 83.0225 287.17375 83.6015625 286.28125 C84.18679688 285.3634375 84.77203125 284.445625 85.375 283.5 C85.9525 282.613125 86.53 281.72625 87.125 280.8125 C90.05384285 276.26543804 92.7667992 271.72374223 95.10546875 266.84619141 C95.97838402 265.04461246 96.93577099 263.28474141 97.89453125 261.52734375 C103.60712435 250.9550692 107.08021105 239.99329231 110.31201172 228.4465332 C110.89122424 226.38681403 111.50425805 224.3366488 112.125 222.2890625 C119.06632449 196.19711957 119.64416275 153.48633483 107.91894531 128.98608398 C106.71092253 126.37522708 105.98275743 123.71524881 105.25 120.9375 C102.82110327 112.77450198 98.96628317 105.49640511 95 98 C94.33137266 96.70997656 93.6633862 95.4196207 92.99609375 94.12890625 C90.42678642 88.19118604 90.42678642 88.19118604 86 84 C85 82 84 80 83 78 C81.44332109 75.53690046 79.79852652 73.30580323 78 71 C77.34 71 76.68 71 76 71 C76 70.34 76 69.68 76 69 C75.34 69 74.68 69 74 69 C73.8040625 68.31550781 73.608125 67.63101563 73.40625 66.92578125 C71.47548485 62.90871709 68.66925331 60.27081911 65.5 57.1875 C64.90574219 56.59001953 64.31148438 55.99253906 63.69921875 55.37695312 C60.87067929 52.12666332 60.87067929 52.12666332 57 51 C57 50.34 57 49.68 57 49 C56.34 49 55.68 49 55 49 C55 48.34 55 47.68 55 47 C53.1823021 45.40606592 51.36799055 43.94717588 49.4375 42.5 C48.85758301 42.06075195 48.27766602 41.62150391 47.68017578 41.16894531 C34.00750509 30.93174717 19.95515197 22.2338929 4 16 C3.34596191 15.7304248 2.69192383 15.46084961 2.01806641 15.18310547 C-44.40846962 -3.9362153 -97.08105012 -0.55178204 -143 18 Z " fill="#195CA1" transform="translate(316,67)"/>
<path d="M0 0 C1.72421428 3.44842856 -0.04090847 7.21692169 -0.9140625 10.828125 C-1.22936668 12.16774292 -1.22936668 12.16774292 -1.55104065 13.53442383 C-2.00247492 15.44883436 -2.45703892 17.36250902 -2.91439819 19.2755127 C-3.62361913 22.24421985 -4.32352978 25.21497726 -5.02075195 28.18652344 C-6.92616846 36.29747413 -8.85110003 44.40335383 -10.81640625 52.5 C-11.05601074 53.50514648 -11.29561523 54.51029297 -11.54248047 55.54589844 C-11.95635234 57.28096462 -12.38028918 59.01367849 -12.81689453 60.74316406 C-13.93661272 65.46770483 -14.08982511 69.16659484 -13 74 C-10.95026118 76.97212129 -8.4041039 77.96396838 -5 79 C-2.00770843 79.44255741 0.98591123 79.7504676 4 80 C4 80.33 4 80.66 4 81 C-0.95 81.495 -0.95 81.495 -6 82 C-5.67 82.99 -5.34 83.98 -5 85 C-4.02417969 85.03738281 -3.04835938 85.07476562 -2.04296875 85.11328125 C-0.77066406 85.17902344 0.50164062 85.24476563 1.8125 85.3125 C3.07707031 85.37050781 4.34164062 85.42851562 5.64453125 85.48828125 C9 86 9 86 10.9375 87.375 C12.40919686 89.62583049 12.21305693 91.3722979 12 94 C11.01 93.67 10.02 93.34 9 93 C8.3125 90.9375 8.3125 90.9375 8 89 C7.03320312 88.97421875 6.06640625 88.9484375 5.0703125 88.921875 C-6.44403266 88.42025996 -15.20954521 86.67645736 -23.828125 78.546875 C-28.08419418 73.55594496 -31.01588434 67.81970067 -34 62 C-34.54011719 60.97648437 -35.08023438 59.95296875 -35.63671875 58.8984375 C-37.84569574 54.20198785 -39.19547478 50.16417302 -38 45 C-34.46501807 40.92826468 -30.55188523 37.87061435 -26 35 C-25.34 35 -24.68 35 -24 35 C-23.690625 34.38125 -23.38125 33.7625 -23.0625 33.125 C-22.375 31.75 -21.6875 30.375 -21 29 C-20.34 29 -19.68 29 -19 29 C-18.896875 28.46375 -18.79375 27.9275 -18.6875 27.375 C-17.81907303 24.37497956 -16.44379704 21.7620465 -15 19 C-14.31292445 21.49064888 -14 23.37886292 -14 26 C-13.67 25.34 -13.34 24.68 -13 24 C-11.68 24.33 -10.36 24.66 -9 25 C-7.66666667 22 -7.66666667 22 -9 19 C-8.75 16.875 -8.75 16.875 -8 15 C-7.01 14.67 -6.02 14.34 -5 14 C-4.03916553 11.00728183 -4.03916553 11.00728183 -3.4375 7.5 C-3.01826836 5.32094287 -2.55177512 3.149323 -2 1 C-1.34 0.67 -0.68 0.34 0 0 Z " fill="#277AC8" transform="translate(287,213)"/>
<path d="M0 0 C14.8565971 -0.73736787 14.8565971 -0.73736787 20.75390625 4.58203125 C25.94200092 10.32018897 27.33547146 15.27907815 27.25 23 C27.26160156 24.04800781 27.26160156 24.04800781 27.2734375 25.1171875 C27.25808241 29.18628563 26.8011034 32.34061531 25 36 C24.34 36 23.68 36 23 36 C22.75765625 36.75925781 22.5153125 37.51851562 22.265625 38.30078125 C19.81278674 43.53198878 14.21266669 45.91825184 9.1875 48.375 C4.16821971 49.35917261 -0.90260254 49.3408835 -6 49 C-6.33 48.67 -6.66 48.34 -7 48 C-6.73425479 44.65161036 -6.38075235 41.33648968 -6 38 C-5.86190585 36.64336847 -5.72528228 35.28658673 -5.58984375 33.9296875 C-3.06339627 9.19018881 -3.06339627 9.19018881 0 0 Z " fill="#2379C9" transform="translate(227,194)"/>
<path d="M0 0 C0.99 0 1.98 0 3 0 C3.39353007 8.93459011 2.6579729 17.1483024 1.14404297 25.92626953 C-0.05096243 32.94389955 -0.6633845 39.88464488 -1 47 C-0.06148193 46.98428955 -0.06148193 46.98428955 0.89599609 46.96826172 C3.7222901 46.92676809 6.54852011 46.90069527 9.375 46.875 C10.35984375 46.85824219 11.3446875 46.84148437 12.359375 46.82421875 C13.77089844 46.81455078 13.77089844 46.81455078 15.2109375 46.8046875 C16.08024902 46.79421387 16.94956055 46.78374023 17.84521484 46.77294922 C20 47 20 47 22 49 C18.39598519 49.08701039 14.79223988 49.14039388 11.1875 49.1875 C10.16333984 49.21263672 9.13917969 49.23777344 8.08398438 49.26367188 C6.60961914 49.27817383 6.60961914 49.27817383 5.10546875 49.29296875 C4.19949951 49.3086792 3.29353027 49.32438965 2.36010742 49.34057617 C0 49 0 49 -1.80078125 47.63671875 C-3.49625294 45.32270364 -3.29775721 43.64243515 -3.1875 40.8125 C-3.16042969 39.91144531 -3.13335937 39.01039063 -3.10546875 38.08203125 C-3.07066406 37.39496094 -3.03585938 36.70789063 -3 36 C-3.99 36 -4.98 36 -6 36 C-6.33 34.68 -6.66 33.36 -7 32 C-7.350625 32.86625 -7.70125 33.7325 -8.0625 34.625 C-10.32078311 38.55878348 -12.98053642 41.77849002 -17 44 C-19.22265625 43.66015625 -19.22265625 43.66015625 -21 43 C-20.55269531 42.6596875 -20.10539063 42.319375 -19.64453125 41.96875 C-12.67310088 36.37971414 -8.21443804 30.02355706 -7 21 C-6.56282927 16.00303688 -6.24786847 11.00955216 -6 6 C-5.67 6 -5.34 6 -5 6 C-4.67 10.29 -4.34 14.58 -4 19 C-3.01 18.67 -2.02 18.34 -1 18 C-1 16.02 -1 14.04 -1 12 C-0.34 12 0.32 12 1 12 C0.67 8.04 0.34 4.08 0 0 Z M-2 4 C-1.34 4 -0.68 4 0 4 C0 5.98 0 7.96 0 10 C-0.66 10 -1.32 10 -2 10 C-2 8.02 -2 6.04 -2 4 Z " fill="#3F82C4" transform="translate(188,264)"/>
<path d="M0 0 C0.33 0 0.66 0 1 0 C1.33 3.63 1.66 7.26 2 11 C3.32 10.34 4.64 9.68 6 9 C6.81584568 5.94091587 6.81584568 5.94091587 7 3 C7.33 3 7.66 3 8 3 C7.41511554 15.76661607 5.7527688 28.34807618 4 41 C3.69191406 40.38125 3.38382813 39.7625 3.06640625 39.125 C2.37238952 37.74205091 1.66343451 36.36646497 0.9375 35 C0.00499339 33.01065256 -0.54074016 31.14321257 -1 29 C-1.99 29 -2.98 29 -4 29 C-4 29.66 -4 30.32 -4 31 C-5.98 31 -7.96 31 -10 31 C-10 30.34 -10 29.68 -10 29 C-9.05125 28.814375 -8.1025 28.62875 -7.125 28.4375 C-3.7287527 27.3162847 -3.7287527 27.3162847 -2.875 24.0625 C-1.6996269 19.29666235 -1.30354718 14.44161507 -0.875 9.5625 C-0.74544922 8.17901367 -0.74544922 8.17901367 -0.61328125 6.76757812 C-0.4029346 4.51219459 -0.19865598 2.25643814 0 0 Z " fill="#3D84C5" transform="translate(193,191)"/>
<path d="M0 0 C0.2475 0.556875 0.495 1.11375 0.75 1.6875 C2.68327314 5.26405532 4.60527927 8.20301673 8.1875 10.25 C12.08576314 11.28953684 15.98630791 11.66771177 20 12 C20 12.33 20 12.66 20 13 C16.7 13.33 13.4 13.66 10 14 C10.33 14.99 10.66 15.98 11 17 C11.97582031 17.03738281 12.95164062 17.07476562 13.95703125 17.11328125 C15.22933594 17.17902344 16.50164062 17.24476563 17.8125 17.3125 C19.07707031 17.37050781 20.34164063 17.42851562 21.64453125 17.48828125 C25 18 25 18 26.9375 19.375 C28.40919686 21.62583049 28.21305693 23.3722979 28 26 C27.01 25.67 26.02 25.34 25 25 C24.3125 22.9375 24.3125 22.9375 24 21 C23.03320312 20.97421875 22.06640625 20.9484375 21.0703125 20.921875 C11.87909259 20.52146542 2.83197007 20.05237073 -4.125 13.25 C-4.74375 12.5075 -5.3625 11.765 -6 11 C-3.525 11.495 -3.525 11.495 -1 12 C-1 11.01 -1 10.02 -1 9 C-1.99 8.67 -2.98 8.34 -4 8 C-3.525625 7.608125 -3.05125 7.21625 -2.5625 6.8125 C-0.64820367 4.59191626 -0.38733012 2.86624291 0 0 Z " fill="#4C90CE" transform="translate(271,281)"/>
<path d="M0 0 C2.3618153 2.3618153 2.38599469 3.27160182 2.81640625 6.5078125 C2.94080078 7.41273438 3.06519531 8.31765625 3.19335938 9.25 C3.37608398 10.673125 3.37608398 10.673125 3.5625 12.125 C3.68818359 13.05054688 3.81386719 13.97609375 3.94335938 14.9296875 C4.19133419 16.76807671 4.43331539 18.60728469 4.66918945 20.44726562 C4.86901843 21.98926692 5.07828251 23.53014345 5.30541992 25.06835938 C6.12334688 30.7916513 6.19122846 36.47461213 6.1875 42.25 C6.18814453 43.28962891 6.18878906 44.32925781 6.18945312 45.40039062 C6.12285114 55.34830531 5.22221462 65.13498202 4 75 C3.67 75 3.34 75 3 75 C2.90912109 73.58847656 2.90912109 73.58847656 2.81640625 72.1484375 C2.73261719 70.90320313 2.64882813 69.65796875 2.5625 68.375 C2.48128906 67.14523437 2.40007812 65.91546875 2.31640625 64.6484375 C2.06951805 61.03409178 2.06951805 61.03409178 1.33984375 57.6640625 C1.22769531 56.78492188 1.11554688 55.90578125 1 55 C1.66 54.34 2.32 53.68 3 53 C3.29458759 50.49330184 3.29458759 50.49330184 3.23046875 47.58984375 C3.22853516 46.51798828 3.22660156 45.44613281 3.22460938 44.34179688 C3.21236328 43.21837891 3.20011719 42.09496094 3.1875 40.9375 C3.18685547 39.81021484 3.18621094 38.68292969 3.18554688 37.52148438 C3.64880879 32.40350331 3.64880879 32.40350331 2 28 C1.78711485 25.62869599 1.63026162 23.25227463 1.5 20.875 C1.22185438 15.85844501 0.72889016 10.96970562 0 6 C-0.03635763 4.0003305 -0.04876598 1.99940538 0 0 Z " fill="#7492B3" transform="translate(439,205)"/>
<path d="M0 0 C0.33 0 0.66 0 1 0 C1 1.98 1 3.96 1 6 C2.32 6.33 3.64 6.66 5 7 C4.29066349 10.15179419 3.26100998 13.06396371 2.0625 16.0625 C1.72347656 16.91972656 1.38445312 17.77695313 1.03515625 18.66015625 C0 21 0 21 -2 24 C-2.99 24 -3.98 24 -5 24 C-5.33 20.04 -5.66 16.08 -6 12 C-5.67 12 -5.34 12 -5 12 C-4.731875 10.948125 -4.46375 9.89625 -4.1875 8.8125 C-3.13043884 5.41877734 -2.01969476 2.89782292 0 0 Z " fill="#3280C9" transform="translate(337,211)"/>
<path d="M0 0 C0.33 0 0.66 0 1 0 C1.38922874 2.76951222 1.76184952 5.5395547 2.125 8.3125 C2.29322266 9.49102539 2.29322266 9.49102539 2.46484375 10.69335938 C2.56152344 11.45068359 2.65820312 12.20800781 2.7578125 12.98828125 C2.8520752 13.68477783 2.94633789 14.38127441 3.04345703 15.09887695 C3 17 3 17 1 20 C0.72521627 22.22485741 0.72521627 22.22485741 0.8046875 24.66796875 C0.81113281 25.56064453 0.81757812 26.45332031 0.82421875 27.37304688 C0.84097656 28.30181641 0.85773437 29.23058594 0.875 30.1875 C0.88402344 31.12787109 0.89304688 32.06824219 0.90234375 33.03710938 C0.92590944 35.35832968 0.95880884 37.67903644 1 40 C1.99 39.505 1.99 39.505 3 39 C2.50311992 47.02408469 1.98025099 55.01795622 1 63 C0.67 63 0.34 63 0 63 C-2.41997149 41.67400125 -2.41997149 21.32599875 0 0 Z " fill="#6482A8" transform="translate(57,217)"/>
<path d="M0 0 C0.99 0 1.98 0 3 0 C2.67 12.21 2.34 24.42 2 37 C1.01 36.67 0.02 36.34 -1 36 C-1.02712066 34.56260487 -1.04645067 33.12506137 -1.0625 31.6875 C-1.07410156 30.88699219 -1.08570313 30.08648437 -1.09765625 29.26171875 C-1 27 -1 27 0 24 C0.06740865 22.43881572 0.08514456 20.8749748 0.0625 19.3125 C0.05347656 18.50425781 0.04445313 17.69601563 0.03515625 16.86328125 C0.02355469 16.24839844 0.01195312 15.63351563 0 15 C-1.65 15 -3.3 15 -5 15 C-5 15.99 -5 16.98 -5 18 C-5.99 18.33 -6.98 18.66 -8 19 C-6.60121198 14.53202662 -4.86369228 10.36177921 -2.875 6.125 C-2.33617187 4.97257813 -1.79734375 3.82015625 -1.2421875 2.6328125 C-0.62730469 1.32957031 -0.62730469 1.32957031 0 0 Z " fill="#437AB1" transform="translate(360,225)"/>
<path d="M0 0 C0.804375 0.309375 1.60875 0.61875 2.4375 0.9375 C6.62249087 2.18565517 10.66306101 2.6337696 15 3 C15 3.33 15 3.66 15 4 C11.7 4.33 8.4 4.66 5 5 C5.33 5.99 5.66 6.98 6 8 C7.46373047 8.05607422 7.46373047 8.05607422 8.95703125 8.11328125 C10.22933594 8.17902344 11.50164062 8.24476563 12.8125 8.3125 C14.07707031 8.37050781 15.34164063 8.42851562 16.64453125 8.48828125 C20 9 20 9 21.9375 10.375 C23.40919686 12.62583049 23.21305693 14.3722979 23 17 C22.01 16.67 21.02 16.34 20 16 C19.3125 13.9375 19.3125 13.9375 19 12 C17.98679687 11.95101563 16.97359375 11.90203125 15.9296875 11.8515625 C14.57810089 11.77647436 13.22653962 11.70092919 11.875 11.625 C10.87726563 11.57859375 10.87726563 11.57859375 9.859375 11.53125 C5.60178738 11.28080367 1.97914217 10.52471803 -2 9 C-1.0409375 8.5978125 -1.0409375 8.5978125 -0.0625 8.1875 C2.33131686 7.11332248 2.33131686 7.11332248 3 4 C2.01 3.67 1.02 3.34 0 3 C0 2.01 0 1.02 0 0 Z " fill="#4D8CC7" transform="translate(276,290)"/>
<path d="M0 0 C0.66 0 1.32 0 2 0 C3.85154567 4.06873272 4.54646296 7.89082406 5.125 12.3125 C5.29257812 13.56675781 5.46015625 14.82101563 5.6328125 16.11328125 C5.75398438 17.06589844 5.87515625 18.01851562 6 19 C5.01 19 4.02 19 3 19 C2.67 17.02 2.34 15.04 2 13 C-0.33075929 13.95865509 -0.33075929 13.95865509 -2 17 C-2.66 17.33 -3.32 17.66 -4 18 C-2.07289294 5.33029613 -2.07289294 5.33029613 0 0 Z " fill="#478BC8" transform="translate(308,221)"/>
<path d="M0 0 C1.43467465 0.54910625 2.87238769 1.09031732 4.3125 1.625 C5.529375 2.07875 6.74625 2.5325 8 3 C8 3.66 8 4.32 8 5 C8.99 5.33 9.98 5.66 11 6 C11.33 7.65 11.66 9.3 12 11 C11.01 11 10.02 11 9 11 C9 10.34 9 9.68 9 9 C8.34 9 7.68 9 7 9 C7 8.34 7 7.68 7 7 C6.34 7 5.68 7 5 7 C5 6.34 5 5.68 5 5 C-2.57575834 2.36952835 -10.04621572 0.19306764 -18 -1 C-18 -1.33 -18 -1.66 -18 -2 C-11.72371446 -3.76520531 -5.85094246 -2.63292411 0 0 Z " fill="#619ACA" transform="translate(259,176)"/>
<path d="M0 0 C1.8125 0.125 1.8125 0.125 4 1 C7.64223198 6.07310883 7.3186572 11.02812802 7 17 C6.34 17.33 5.68 17.66 5 18 C4.67 15.69 4.34 13.38 4 11 C3.01 10.67 2.02 10.34 1 10 C0.34 11.32 -0.32 12.64 -1 14 C-1.33 14 -1.66 14 -2 14 C-2 11.03 -2 8.06 -2 5 C-0.68 5.33 0.64 5.66 2 6 C1.34 4.02 0.68 2.04 0 0 Z " fill="#3B7FC8" transform="translate(164,194)"/>
<path d="M0 0 C0.81146484 -0.01224609 1.62292969 -0.02449219 2.45898438 -0.03710938 C7.4838969 -0.04927623 11.7387974 0.32901185 16.4375 2.1875 C16.9325 3.6725 16.9325 3.6725 17.4375 5.1875 C16.1690625 4.86265625 16.1690625 4.86265625 14.875 4.53125 C2.36665385 1.46101958 -5.46874881 2.38272435 -17.5625 6.1875 C-17.5625 4.5375 -17.5625 2.8875 -17.5625 1.1875 C-11.67365785 0.3423734 -5.94624679 0.00474561 0 0 Z " fill="#5890C7" transform="translate(163.5625,170.8125)"/>
<path d="M0 0 C1.44148603 2.88297206 0.55304714 4.56115644 -0.21484375 7.6640625 C-0.48876953 8.78554687 -0.76269531 9.90703125 -1.04492188 11.0625 C-1.33947266 12.238125 -1.63402344 13.41375 -1.9375 14.625 C-2.22818359 15.80835938 -2.51886719 16.99171875 -2.81835938 18.2109375 C-3.53936013 21.14221925 -4.26683005 24.07174259 -5 27 C-5.66 27 -6.32 27 -7 27 C-9.42655602 18.43568465 -9.42655602 18.43568465 -8 15 C-7.01 14.67 -6.02 14.34 -5 14 C-4.03916553 11.00728183 -4.03916553 11.00728183 -3.4375 7.5 C-3.01826836 5.32094287 -2.55177512 3.149323 -2 1 C-1.34 0.67 -0.68 0.34 0 0 Z " fill="#4E8BC9" transform="translate(287,213)"/>
<path d="M0 0 C0.33 0 0.66 0 1 0 C1.33 3.63 1.66 7.26 2 11 C3.32 10.34 4.64 9.68 6 9 C6.81584568 5.94091587 6.81584568 5.94091587 7 3 C7.33 3 7.66 3 8 3 C7.67 7.95 7.34 12.9 7 18 C6.67 18 6.34 18 6 18 C5.67 16.35 5.34 14.7 5 13 C4.7525 13.78375 4.505 14.5675 4.25 15.375 C3 18 3 18 -1 20 C-0.67 13.4 -0.34 6.8 0 0 Z " fill="#4E8FCA" transform="translate(193,191)"/>
<path d="M0 0 C1.65 0.33 3.3 0.66 5 1 C4.01 1.495 4.01 1.495 3 2 C2.34504866 3.92665196 2.34504866 3.92665196 1.9296875 6.25390625 C1.75566406 7.10791016 1.58164062 7.96191406 1.40234375 8.84179688 C1.22832031 9.73962891 1.05429687 10.63746094 0.875 11.5625 C0.69324219 12.46419922 0.51148438 13.36589844 0.32421875 14.29492188 C-0.12486699 16.52853252 -0.56589404 18.76343808 -1 21 C-3 18 -3 18 -3.5 15.375 C-3.665 14.59125 -3.83 13.8075 -4 13 C-4.66 12.67 -5.32 12.34 -6 12 C-5.34 11.01 -4.68 10.02 -4 9 C-3.01 9 -2.02 9 -1 9 C-1.020625 7.88625 -1.04125 6.7725 -1.0625 5.625 C-1 2 -1 2 0 0 Z " fill="#4085CB" transform="translate(294,174)"/>
<path d="M0 0 C1.13885643 2.81007771 1.02580373 3.92700657 -0.00390625 6.83984375 C-5.47143569 17.70638722 -5.47143569 17.70638722 -11 21 C-13.875 21.3125 -13.875 21.3125 -16 21 C-14.37660195 19.29115995 -12.70680947 17.62553283 -11 16 C-10.34 16 -9.68 16 -9 16 C-8.690625 15.38125 -8.38125 14.7625 -8.0625 14.125 C-7.375 12.75 -6.6875 11.375 -6 10 C-5.34 10 -4.68 10 -4 10 C-3.896875 9.46375 -3.79375 8.9275 -3.6875 8.375 C-2.81907303 5.37497956 -1.44379704 2.7620465 0 0 Z " fill="#4788C5" transform="translate(272,232)"/>
<path d="M0 0 C1.19882812 0.10828125 1.19882812 0.10828125 2.421875 0.21875 C9.97042127 0.85665532 17.4261308 1.1228195 25 1 C24.67 1.99 24.34 2.98 24 4 C15.75 4 7.5 4 -1 4 C-0.67 2.68 -0.34 1.36 0 0 Z " fill="#4584BF" transform="translate(362,172)"/>
<path d="M0 0 C0.66 0.33 1.32 0.66 2 1 C2 4.96 2 8.92 2 13 C0.02 13 -1.96 13 -4 13 C-4 13.99 -4 14.98 -4 16 C-4.99 16.33 -5.98 16.66 -7 17 C-5.24009216 11.08030998 -2.60305395 5.58365008 0 0 Z " fill="#2A78C9" transform="translate(359,227)"/>
<path d="M0 0 C0.33 0 0.66 0 1 0 C1.75068116 7.20653911 -0.99335834 11.25004971 -5.40625 16.75390625 C-7 18 -7 18 -9.04296875 18.07421875 C-12.02148438 17.53710938 -12.02148438 17.53710938 -15 17 C-15 16.67 -15 16.34 -15 16 C-13.2365625 15.938125 -13.2365625 15.938125 -11.4375 15.875 C-7.74320861 15.03209573 -7.00959576 14.01492275 -4.91015625 10.75 C-3.10395114 7.23876257 -1.52163295 3.64240889 0 0 Z " fill="#5893CA" transform="translate(339,271)"/>
<path d="M0 0 C0.33 0 0.66 0 1 0 C1 5.61 1 11.22 1 17 C0.01 16.67 -0.98 16.34 -2 16 C-2.33 18.97 -2.66 21.94 -3 25 C-3.66 25 -4.32 25 -5 25 C-3.8356269 16.50692562 -2.23691302 8.27657818 0 0 Z " fill="#4674A6" transform="translate(63,192)"/>
<path d="M0 0 C2.37693453 2.37693453 2.40275805 3.3508181 2.8515625 6.61328125 C2.98046875 7.53173828 3.109375 8.45019531 3.2421875 9.39648438 C3.36851562 10.35876953 3.49484375 11.32105469 3.625 12.3125 C3.7590625 13.26318359 3.893125 14.21386719 4.03125 15.19335938 C4.62173535 19.50450499 5.07298615 23.64175391 5 28 C4.01 28 3.02 28 2 28 C1.93941406 26.99839844 1.87882812 25.99679688 1.81640625 24.96484375 C1.73191595 23.62238669 1.64727232 22.27993928 1.5625 20.9375 C1.48128906 19.62652344 1.40007812 18.31554687 1.31640625 16.96484375 C1.02196853 13.27528471 0.53314987 9.66096244 0 6 C-0.03635763 4.0003305 -0.04876598 1.99940538 0 0 Z " fill="#537FAD" transform="translate(439,205)"/>
<path d="M0 0 C0.33 0 0.66 0 1 0 C1.31646072 5.27434536 0.92921808 8.55892743 -2 13 C-4.13479229 15.29980039 -6.24286971 17.4761667 -9 19 C-11.22265625 18.66015625 -11.22265625 18.66015625 -13 18 C-12.32904297 17.48953125 -12.32904297 17.48953125 -11.64453125 16.96875 C-5.95791168 12.40975435 -1.52209254 7.28661324 0 0 Z " fill="#5993C9" transform="translate(180,289)"/>
<path d="M0 0 C0.66 0 1.32 0 2 0 C2.38133299 1.9914056 2.71325582 3.99279077 3 6 C2.67 6.33 2.34 6.66 2 7 C1.77285996 8.63066766 1.60544914 10.26976003 1.46484375 11.91015625 C1.37783203 12.89951172 1.29082031 13.88886719 1.20117188 14.90820312 C1.11416016 15.94912109 1.02714844 16.99003906 0.9375 18.0625 C0.84662109 19.10728516 0.75574219 20.15207031 0.66210938 21.22851562 C0.43739092 23.8186915 0.2168769 26.40915767 0 29 C-0.33 29 -0.66 29 -1 29 C-1.02911003 25.10418244 -1.04683587 21.208393 -1.0625 17.3125 C-1.07087891 16.20970703 -1.07925781 15.10691406 -1.08789062 13.97070312 C-1.09111328 12.90400391 -1.09433594 11.83730469 -1.09765625 10.73828125 C-1.10289307 9.75899658 -1.10812988 8.77971191 -1.11352539 7.77075195 C-1.00308543 5.07530428 -0.60534166 2.62454361 0 0 Z " fill="#508CC5" transform="translate(131,236)"/>
<path d="M0 0 C0.33 0 0.66 0 1 0 C1.22786458 1.953125 1.45572917 3.90625 1.68359375 5.859375 C1.9502754 7.96900156 1.9502754 7.96900156 2.51367188 9.84960938 C3.03516786 12.15550125 3.11361551 14.18490481 3.09765625 16.546875 C3.09282227 17.81337891 3.09282227 17.81337891 3.08789062 19.10546875 C3.07951172 19.97816406 3.07113281 20.85085937 3.0625 21.75 C3.05798828 22.63816406 3.05347656 23.52632812 3.04882812 24.44140625 C3.037074 26.62767329 3.02064249 28.81380179 3 31 C2.67 31 2.34 31 2 31 C1.95101563 30.26136719 1.90203125 29.52273437 1.8515625 28.76171875 C1.46420208 23.50563853 0.94689074 18.41390606 -0.125 13.25 C-1.06340038 8.4958981 -0.89603371 4.74897868 0 0 Z " fill="#5E96CC" transform="translate(328,192)"/>
<path d="M0 0 C0.99 0 1.98 0 3 0 C3.04241723 2.33294775 3.04092937 4.66702567 3 7 C2.67 7.33 2.34 7.66 2 8 C1.71602148 10.80823199 1.55153335 13.61646635 1.37890625 16.43359375 C1 19 1 19 -1 21 C-1.09733092 13.90565767 -1.10087193 7.01805857 0 0 Z " fill="#4A87C2" transform="translate(212,291)"/>
<path d="M0 0 C0.33 0 0.66 0 1 0 C0.50311992 8.02408469 -0.01974901 16.01795622 -1 24 C-1.33 24 -1.66 24 -2 24 C-2.25009147 21.12545466 -2.4755982 18.2524034 -2.6875 15.375 C-2.76033203 14.56675781 -2.83316406 13.75851562 -2.90820312 12.92578125 C-3.26609679 7.74684945 -2.85855716 4.54135817 0 0 Z " fill="#4A76A1" transform="translate(59,256)"/>
<path d="M0 0 C0.99 0.33 1.98 0.66 3 1 C0.65014982 5.92468601 -1.7925 10.57586206 -5 15 C-5.33 15 -5.66 15 -6 15 C-6 12.69 -6 10.38 -6 8 C-5.34 8 -4.68 8 -4 8 C-4 7.34 -4 6.68 -4 6 C-3.34 5.67 -2.68 5.34 -2 5 C-1.6278958 3.67696283 -1.29369827 2.34262065 -1 1 C-0.67 0.67 -0.34 0.34 0 0 Z " fill="#4C7CAA" transform="translate(416,345)"/>
<path d="M0 0 C0.33 0.66 0.66 1.32 1 2 C1.66 2 2.32 2 3 2 C3 5.3 3 8.6 3 12 C2.67 12 2.34 12 2 12 C2 9.03 2 6.06 2 3 C0.58422523 4.18424326 0.58422523 4.18424326 0.9375 7.5625 C0.958125 8.696875 0.97875 9.83125 1 11 C-0.32 11.33 -1.64 11.66 -3 12 C-3 9.33333333 -3 6.66666667 -3 4 C-2.34 4 -1.68 4 -1 4 C-0.67 2.68 -0.34 1.36 0 0 Z " fill="#3A87D2" transform="translate(357,298)"/>
<path d="M0 0 C0.33 0 0.66 0 1 0 C2.10228696 4.40914783 2.07654536 8.48382401 2 13 C1.01 13.33 0.02 13.66 -1 14 C-0.67 17.3 -0.34 20.6 0 24 C-0.66 24 -1.32 24 -2 24 C-2.33 24.99 -2.66 25.98 -3 27 C-2.48143798 17.897872 -1.53767346 8.98717886 0 0 Z " fill="#699ECE" transform="translate(225,201)"/>
<path d="M0 0 C0.99 0.33 1.98 0.66 3 1 C2.34 1 1.68 1 1 1 C1 1.99 1 2.98 1 4 C0.34 4 -0.32 4 -1 4 C-1 5.98 -1 7.96 -1 10 C-1.99 10.495 -1.99 10.495 -3 11 C-3.66 10.67 -4.32 10.34 -5 10 C-5.625 7.9375 -5.625 7.9375 -6 6 C-7.98 6.99 -7.98 6.99 -10 8 C-10 7.34 -10 6.68 -10 6 C-7.69723426 3.78252188 -6.47519908 3.03239994 -3.25 2.8125 C-2.13625 2.9053125 -2.13625 2.9053125 -1 3 C-0.67 2.01 -0.34 1.02 0 0 Z " fill="#135599" transform="translate(129,100)"/>
<path d="M0 0 C0.33 0 0.66 0 1 0 C1.41612253 2.76916073 1.80847753 5.53823496 2.1875 8.3125 C2.36829102 9.49102539 2.36829102 9.49102539 2.55273438 10.69335938 C2.65263672 11.45068359 2.75253906 12.20800781 2.85546875 12.98828125 C3.00471802 14.03302612 3.00471802 14.03302612 3.15698242 15.09887695 C3 17 3 17 1.5090332 18.75073242 C1.01105225 19.16299072 0.51307129 19.57524902 0 20 C-1 19 -1 19 -1.02172852 17.14233398 C-0.95103149 15.95619507 -0.95103149 15.95619507 -0.87890625 14.74609375 C-0.83056641 13.89208984 -0.78222656 13.03808594 -0.73242188 12.15820312 C-0.67634766 11.26037109 -0.62027344 10.36253906 -0.5625 9.4375 C-0.51029297 8.53580078 -0.45808594 7.63410156 -0.40429688 6.70507812 C-0.27419751 4.4697345 -0.13922064 2.2347911 0 0 Z " fill="#4876A9" transform="translate(57,217)"/>
<path d="M0 0 C3.465 1.98 3.465 1.98 7 4 C5.91926148 6.16147703 4.80636736 7.41039672 3 9 C1 9 1 9 -2 8 C-1.34 5.36 -0.68 2.72 0 0 Z " fill="#3580C7" transform="translate(275,223)"/>
<path d="M0 0 C0.33 0 0.66 0 1 0 C1.0825 1.258125 1.165 2.51625 1.25 3.8125 C1.86302038 9.55842241 3.8572831 14.66812307 6 20 C5.34 20.66 4.68 21.32 4 22 C4 20.35 4 18.7 4 17 C3.01 16.67 2.02 16.34 1 16 C-1.728856 10.6787308 -0.83280436 5.69458115 0 0 Z " fill="#6296C9" transform="translate(104,271)"/>
<path d="M0 0 C2.31 0.33 4.62 0.66 7 1 C7 1.66 7 2.32 7 3 C7.99 3.33 8.98 3.66 10 4 C10.33 5.65 10.66 7.3 11 9 C10.01 9 9.02 9 8 9 C8 8.34 8 7.68 8 7 C7.34 7 6.68 7 6 7 C6 6.34 6 5.68 6 5 C5.34 5 4.68 5 4 5 C4 4.34 4 3.68 4 3 C2.68 2.67 1.36 2.34 0 2 C0 1.34 0 0.68 0 0 Z " fill="#4787C4" transform="translate(260,178)"/>
<path d="M0 0 C2.97 0.33 5.94 0.66 9 1 C9.66 3.31 10.32 5.62 11 8 C10.01 7.67 9.02 7.34 8 7 C7.67 5.35 7.34 3.7 7 2 C3.9254644 2.7763932 3.9254644 2.7763932 2 5 C1.01 4.67 0.02 4.34 -1 4 C-0.67 2.68 -0.34 1.36 0 0 Z " fill="#5F98CB" transform="translate(217,263)"/>
<path d="M0 0 C0.33 0 0.66 0 1 0 C1 2.31 1 4.62 1 7 C0.071875 7.309375 0.071875 7.309375 -0.875 7.625 C-3.84653645 9.54775888 -4.13024659 11.66594527 -5 15 C-5.33 15 -5.66 15 -6 15 C-6.33 12.69 -6.66 10.38 -7 8 C-5.824375 7.4121875 -5.824375 7.4121875 -4.625 6.8125 C-1.64843582 4.75725331 -1.01176437 3.40320742 0 0 Z " fill="#2877C1" transform="translate(198,203)"/>
<path d="M0 0 C0.55171875 0.22558594 1.1034375 0.45117188 1.671875 0.68359375 C1.341875 2.00359375 1.011875 3.32359375 0.671875 4.68359375 C-1.968125 4.68359375 -4.608125 4.68359375 -7.328125 4.68359375 C-7.658125 5.67359375 -7.988125 6.66359375 -8.328125 7.68359375 C-9.648125 7.02359375 -10.968125 6.36359375 -12.328125 5.68359375 C-10.75465324 4.64762475 -9.16890954 3.63027643 -7.578125 2.62109375 C-6.69640625 2.05261719 -5.8146875 1.48414062 -4.90625 0.8984375 C-2.328125 -0.31640625 -2.328125 -0.31640625 0 0 Z " fill="#527CAA" transform="translate(158.328125,79.31640625)"/>
<path d="M0 0 C0.33 0 0.66 0 1 0 C1.94450945 7.51248284 1.94450945 14.48751716 1 22 C0.67 22 0.34 22 0 22 C-0.06058594 21.05898438 -0.12117188 20.11796875 -0.18359375 19.1484375 C-0.30927734 17.28058594 -0.30927734 17.28058594 -0.4375 15.375 C-0.51871094 14.14523437 -0.59992188 12.91546875 -0.68359375 11.6484375 C-0.93048195 8.03409178 -0.93048195 8.03409178 -1.66015625 4.6640625 C-1.82837891 3.34535156 -1.82837891 3.34535156 -2 2 C-1.34 1.34 -0.68 0.68 0 0 Z " fill="#4B7BAB" transform="translate(442,258)"/>
<path d="M0 0 C1.5625 1.75 1.5625 1.75 3 4 C2.6875 6.25 2.6875 6.25 2 8 C1.38125 8.103125 0.7625 8.20625 0.125 8.3125 C-2.36526484 8.87525373 -2.36526484 8.87525373 -4 12 C-4.99 10.35 -5.98 8.7 -7 7 C-6.21625 6.5875 -5.4325 6.175 -4.625 5.75 C-1.94108344 3.9607223 -1.11901051 2.95011861 0 0 Z " fill="#1158A2" transform="translate(404,136)"/>
<path d="M0 0 C0.66 0.33 1.32 0.66 2 1 C-0.64 4.63 -3.28 8.26 -6 12 C-6.66 11.67 -7.32 11.34 -8 11 C-7.67 10.01 -7.34 9.02 -7 8 C-6.34 8 -5.68 8 -5 8 C-5.33 6.68 -5.66 5.36 -6 4 C-3 2 -3 2 0 2 C0 1.34 0 0.68 0 0 Z " fill="#4473A4" transform="translate(408,360)"/>
<path d="M0 0 C0 0.99 0 1.98 0 3 C1.32 3.33 2.64 3.66 4 4 C3.34 5.32 2.68 6.64 2 8 C0.35 7.67 -1.3 7.34 -3 7 C-2.34 6.67 -1.68 6.34 -1 6 C-1.99 4.35 -2.98 2.7 -4 1 C-2 0 -2 0 0 0 Z " fill="#1B75C3" transform="translate(276,290)"/>
<path d="M0 0 C0.66 0.33 1.32 0.66 2 1 C2 4.96 2 8.92 2 13 C1.01 12.67 0.02 12.34 -1 12 C-1.02712066 10.56260487 -1.04645067 9.12506137 -1.0625 7.6875 C-1.07410156 6.88699219 -1.08570313 6.08648437 -1.09765625 5.26171875 C-1 3 -1 3 0 0 Z " fill="#5192CA" transform="translate(360,249)"/>
<path d="M0 0 C0.66 0 1.32 0 2 0 C2.05441656 1.89551022 2.09298035 3.7914792 2.125 5.6875 C2.14820313 6.74324219 2.17140625 7.79898438 2.1953125 8.88671875 C1.99858729 12.02251859 1.33057654 14.17645373 0 17 C-0.33 17 -0.66 17 -1 17 C-0.67 11.39 -0.34 5.78 0 0 Z " fill="#226DB5" transform="translate(277,208)"/>
<path d="M0 0 C0.33 1.32 0.66 2.64 1 4 C-1.71352495 7.69039393 -4.63563985 8.88569528 -9 10 C-9.99 10 -10.98 10 -12 10 C-8.04 6.7 -4.08 3.4 0 0 Z " fill="#5F87AF" transform="translate(131,95)"/>
<path d="M0 0 C0.33 0 0.66 0 1 0 C0.67 2.64 0.34 5.28 0 8 C0.639375 8.28875 1.27875 8.5775 1.9375 8.875 C4 10 4 10 5 12 C3.35 11.67 1.7 11.34 0 11 C0.33 12.32 0.66 13.64 1 15 C0.01 14.67 -0.98 14.34 -2 14 C-1.85795259 12.41632253 -1.71119847 10.83306682 -1.5625 9.25 C-1.48128906 8.36828125 -1.40007812 7.4865625 -1.31640625 6.578125 C-1.03761535 4.30649548 -0.61209423 2.20148177 0 0 Z " fill="#5594CE" transform="translate(299,259)"/>
<path d="M0 0 C0.33 0 0.66 0 1 0 C1.02690844 2.62506802 1.04679404 5.24986173 1.0625 7.875 C1.07087891 8.62136719 1.07925781 9.36773437 1.08789062 10.13671875 C1.11328125 15.7734375 1.11328125 15.7734375 0 18 C-0.66 18 -1.32 18 -2 18 C-2.27560214 11.79895188 -1.22899346 6.06815522 0 0 Z " fill="#5B96CC" transform="translate(253,209)"/>
<path d="M0 0 C0.99 0.33 1.98 0.66 3 1 C3.19672365 2.72814161 3.38196799 4.45759197 3.5625 6.1875 C3.66691406 7.15042969 3.77132813 8.11335937 3.87890625 9.10546875 C3.99758751 11.94233377 3.67765639 14.25423671 3 17 C2.67 17 2.34 17 2 17 C1.34 11.39 0.68 5.78 0 0 Z " fill="#619CCD" transform="translate(324,179)"/>
<path d="M0 0 C1.65 0.33 3.3 0.66 5 1 C4.01 1.495 4.01 1.495 3 2 C2.31068656 4.34907875 2.31068656 4.34907875 1.875 7.0625 C1.70742188 7.98160156 1.53984375 8.90070313 1.3671875 9.84765625 C1.24601562 10.55792969 1.12484375 11.26820313 1 12 C0.34 12 -0.32 12 -1 12 C-1.02698189 10.37509046 -1.04638757 8.75005367 -1.0625 7.125 C-1.07410156 6.22007812 -1.08570313 5.31515625 -1.09765625 4.3828125 C-1 2 -1 2 0 0 Z " fill="#5591C8" transform="translate(294,174)"/>
<path d="M0 0 C5.23115393 -0.21544006 9.43785303 0.47629807 14.4375 2 C15.67371094 2.37125 16.90992188 2.7425 18.18359375 3.125 C19.11300781 3.41375 20.04242188 3.7025 21 4 C21 4.33 21 4.66 21 5 C14.07 4.505 14.07 4.505 7 4 C6.67 3.01 6.34 2.02 6 1 C4.02 1 2.04 1 0 1 C0 0.67 0 0.34 0 0 Z " fill="#567BA7" transform="translate(289,61)"/>
<path d="M0 0 C2.97 0.33 5.94 0.66 9 1 C9.33 2.65 9.66 4.3 10 6 C6.62972148 6 5.93297304 5.50175992 3.3125 3.5625 C2.68988281 3.11003906 2.06726563 2.65757812 1.42578125 2.19140625 C0.95527344 1.79824219 0.48476562 1.40507812 0 1 C0 0.67 0 0.34 0 0 Z " fill="#5681AE" transform="translate(139,409)"/>
<path d="M0 0 C0 0.99 0 1.98 0 3 C0.99 3.33 1.98 3.66 3 4 C1.6875 5.5 1.6875 5.5 0 7 C-0.99 7 -1.98 7 -3 7 C-3.33 7.99 -3.66 8.98 -4 10 C-4.99 9.34 -5.98 8.68 -7 8 C-4.69 5.36 -2.38 2.72 0 0 Z " fill="#4A78AC" transform="translate(106,118)"/>
<path d="M0 0 C-1.78809697 1.17213045 -3.58059125 2.33755526 -5.375 3.5 C-6.37273437 4.1496875 -7.37046875 4.799375 -8.3984375 5.46875 C-11 7 -11 7 -13 7 C-13 6.34 -13 5.68 -13 5 C-12.01 5 -11.02 5 -10 5 C-9.67 4.01 -9.34 3.02 -9 2 C-8.34 2 -7.68 2 -7 2 C-7 1.34 -7 0.68 -7 0 C-3.86650268 -1.04449911 -3.01031744 -0.93423645 0 0 Z " fill="#5F85AF" transform="translate(360,411)"/>
<path d="M0 0 C1.65 0.99 3.3 1.98 5 3 C5 2.01 5 1.02 5 0 C5.99 0 6.98 0 8 0 C7.8125 1.8125 7.8125 1.8125 7 4 C4.4375 5.75 4.4375 5.75 2 7 C2 6.01 2 5.02 2 4 C1.01 4 0.02 4 -1 4 C-0.67 2.68 -0.34 1.36 0 0 Z " fill="#3A6AA0" transform="translate(379,386)"/>
<path d="M0 0 C0.33 0 0.66 0 1 0 C1.06058594 0.90363281 1.12117187 1.80726563 1.18359375 2.73828125 C1.26738281 3.91777344 1.35117188 5.09726562 1.4375 6.3125 C1.55931641 8.07013672 1.55931641 8.07013672 1.68359375 9.86328125 C1.8867371 13.02590958 1.8867371 13.02590958 3 16 C2.34 16 1.68 16 1 16 C1 16.99 1 17.98 1 19 C0.34 19 -0.32 19 -1 19 C-0.67 12.73 -0.34 6.46 0 0 Z M3 12 C3.66 12 4.32 12 5 12 C4.67 12.66 4.34 13.32 4 14 C3.67 13.34 3.34 12.68 3 12 Z " fill="#4D8DCD" transform="translate(182,270)"/>
<path d="M0 0 C0.66 0 1.32 0 2 0 C2.4025937 3.52269485 2.13372795 4.79940808 0.125 7.8125 C-0.57625 8.534375 -1.2775 9.25625 -2 10 C-2.66 10 -3.32 10 -4 10 C-4.33 10.99 -4.66 11.98 -5 13 C-5.33 11.68 -5.66 10.36 -6 9 C-5.01 9 -4.02 9 -3 9 C-3 7.68 -3 6.36 -3 5 C-2.34 4.67 -1.68 4.34 -1 4 C-0.34786708 1.97536745 -0.34786708 1.97536745 0 0 Z " fill="#4D78A7" transform="translate(396,372)"/>
<path d="M0 0 C2 1.25 2 1.25 4 3 C4 4.32 4 5.64 4 7 C4.66 7 5.32 7 6 7 C8 10 8 10 8 14 C7.34 14 6.68 14 6 14 C4.9923048 12.2335343 3.99408286 10.46166177 3 8.6875 C2.443125 7.70136719 1.88625 6.71523438 1.3125 5.69921875 C0 3 0 3 0 0 Z " fill="#6791B5" transform="translate(74,333)"/>
<path d="M0 0 C0.82973374 2.38213881 1.10314333 3.65893095 0.36328125 6.10546875 C0.01652344 6.79253906 -0.33023437 7.47960937 -0.6875 8.1875 C-1.18830078 9.22970703 -1.18830078 9.22970703 -1.69921875 10.29296875 C-3.30835927 12.40466367 -4.42201159 12.63636795 -7 13 C-6.67 12.01 -6.34 11.02 -6 10 C-5.34 10 -4.68 10 -4 10 C-3.896875 9.46375 -3.79375 8.9275 -3.6875 8.375 C-2.81907303 5.37497956 -1.44379704 2.7620465 0 0 Z " fill="#6598CA" transform="translate(272,232)"/>
<path d="M0 0 C0.33 1.32 0.66 2.64 1 4 C1.66 4 2.32 4 3 4 C2.67 5.65 2.34 7.3 2 9 C0.35 9.33 -1.3 9.66 -3 10 C-1.125 2.25 -1.125 2.25 0 0 Z " fill="#3E74AA" transform="translate(71,171)"/>
<path d="M0 0 C0.99 0 1.98 0 3 0 C3 0.66 3 1.32 3 2 C1.21289414 2.86366822 -0.5798465 3.71568594 -2.375 4.5625 C-3.37273437 5.03816406 -4.37046875 5.51382812 -5.3984375 6.00390625 C-6.25695312 6.33261719 -7.11546875 6.66132813 -8 7 C-8.66 6.67 -9.32 6.34 -10 6 C-9.67 5.01 -9.34 4.02 -9 3 C-4.545 2.505 -4.545 2.505 0 2 C0 1.34 0 0.68 0 0 Z " fill="#5E86B1" transform="translate(331,424)"/>
<path d="M0 0 C-0.33 0.99 -0.66 1.98 -1 3 C-0.34 3.66 0.32 4.32 1 5 C0.01 5.33 -0.98 5.66 -2 6 C-2 5.34 -2 4.68 -2 4 C-4.31 3.67 -6.62 3.34 -9 3 C-9 2.34 -9 1.68 -9 1 C-3.375 -1.125 -3.375 -1.125 0 0 Z " fill="#2663AB" transform="translate(337,419)"/>
<path d="M0 0 C0.804375 0.309375 1.60875 0.61875 2.4375 0.9375 C6.62249087 2.18565517 10.66306101 2.6337696 15 3 C15 3.33 15 3.66 15 4 C11.37 4.66 7.74 5.32 4 6 C3.67 5.34 3.34 4.68 3 4 C2.01 3.67 1.02 3.34 0 3 C0 2.01 0 1.02 0 0 Z " fill="#669BD0" transform="translate(276,290)"/>
<path d="M0 0 C0.99 0.33 1.98 0.66 3 1 C2.375 2.9375 2.375 2.9375 1 5 C-2.125 5.75 -2.125 5.75 -5 6 C-5 5.34 -5 4.68 -5 4 C-5.66 3.67 -6.32 3.34 -7 3 C-4 1 -4 1 -1 1 C-0.67 0.67 -0.34 0.34 0 0 Z " fill="#2663A7" transform="translate(123,105)"/>
<path d="M0 0 C0.99 0.495 0.99 0.495 2 1 C1.01 1.495 1.01 1.495 0 2 C0 1.34 0 0.68 0 0 Z M-2 2 C-1.34 2.33 -0.68 2.66 0 3 C-1.07869393 3.96355244 -2.16318743 4.92061417 -3.25 5.875 C-3.85328125 6.40867187 -4.4565625 6.94234375 -5.078125 7.4921875 C-7.01478471 9.01159939 -8.69793955 10.12521703 -11 11 C-11.99 10.67 -12.98 10.34 -14 10 C-11 8 -11 8 -8 8 C-8 7.34 -8 6.68 -8 6 C-6.03852126 4.61061923 -4.03833424 3.2739589 -2 2 Z " fill="#1260AC" transform="translate(360,393)"/>
<path d="M0 0 C0.33 0 0.66 0 1 0 C1.33 2.97 1.66 5.94 2 9 C0.02 9.99 0.02 9.99 -2 11 C-3 10 -3 10 -3.0625 7.4375 C-3.041875 6.633125 -3.02125 5.82875 -3 5 C-2.34 5 -1.68 5 -1 5 C-0.67 3.35 -0.34 1.7 0 0 Z " fill="#478DD1" transform="translate(317,258)"/>
<path d="M0 0 C0.66 0.33 1.32 0.66 2 1 C1.67 1.66 1.34 2.32 1 3 C0.34 3 -0.32 3 -1 3 C-1.33 5.31 -1.66 7.62 -2 10 C-3.65 10.33 -5.3 10.66 -7 11 C-5.35 8.03 -3.7 5.06 -2 2 C-1.34 2 -0.68 2 0 2 C0 1.34 0 0.68 0 0 Z " fill="#5E96C9" transform="translate(147,203)"/>
<path d="M0 0 C1.1875 1.625 1.1875 1.625 2 4 C0.625 7.25 0.625 7.25 -1 10 C-1.66 10 -2.32 10 -3 10 C-2.88637738 8.5199159 -2.75877092 7.04089926 -2.625 5.5625 C-2.55539063 4.73878906 -2.48578125 3.91507813 -2.4140625 3.06640625 C-2.27742188 2.38449219 -2.14078125 1.70257813 -2 1 C-1.34 0.67 -0.68 0.34 0 0 Z " fill="#2D629C" transform="translate(67,185)"/>
<path d="M0 0 C-1 3 -1 3 -2.92578125 4.203125 C-3.71339844 4.54859375 -4.50101562 4.8940625 -5.3125 5.25 C-6.09238281 5.60578125 -6.87226563 5.9615625 -7.67578125 6.328125 C-10.24607227 7.0711335 -11.51383429 6.88750996 -14 6 C-12.04414675 4.99515796 -10.08523763 3.99626195 -8.125 3 C-6.48917969 2.1646875 -6.48917969 2.1646875 -4.8203125 1.3125 C-2 0 -2 0 0 0 Z " fill="#105DA9" transform="translate(338,409)"/>
<path d="M0 0 C1.98 0 3.96 0 6 0 C6.66 2.64 7.32 5.28 8 8 C6.85073734 7.04578192 5.70569459 6.08647955 4.5625 5.125 C3.92441406 4.59132813 3.28632812 4.05765625 2.62890625 3.5078125 C1 2 1 2 0 0 Z " fill="#5A84B0" transform="translate(105,380)"/>
<path d="M0 0 C2.9375 1.1875 2.9375 1.1875 6 3 C6.875 5.6875 6.875 5.6875 7 8 C6.01 8 5.02 8 4 8 C0 2.74285714 0 2.74285714 0 0 Z " fill="#557FAE" transform="translate(85,353)"/>
<path d="M0 0 C0.33 0 0.66 0 1 0 C1.67736481 2.03814233 2.34143534 4.08070555 3 6.125 C3.37125 7.26195312 3.7425 8.39890625 4.125 9.5703125 C4.96911949 12.87895941 5.16509276 15.60528016 5 19 C4.690625 18.360625 4.38125 17.72125 4.0625 17.0625 C3.1654837 15.06389179 3.1654837 15.06389179 2 14 C1.66666667 11.66666667 1.33333333 9.33333333 1 7 C0.67 6.67 0.34 6.34 0 6 C-0.04080783 4.00041636 -0.04254356 1.99954746 0 0 Z " fill="#6A8BB1" transform="translate(434,186)"/>
<path d="M0 0 C2.64 0 5.28 0 8 0 C8 0.33 8 0.66 8 1 C6.02 1 4.04 1 2 1 C2.33 2.65 2.66 4.3 3 6 C1.68 6.33 0.36 6.66 -1 7 C-0.67 4.69 -0.34 2.38 0 0 Z " fill="#4383C0" transform="translate(227,194)"/>
<path d="M0 0 C-0.33 0.99 -0.66 1.98 -1 3 C-1.66 3 -2.32 3 -3 3 C-3 3.66 -3 4.32 -3 5 C-3.99 5.33 -4.98 5.66 -6 6 C-6.99 5.01 -7.98 4.02 -9 3 C-3.2 0 -3.2 0 0 0 Z " fill="#3C6DA4" transform="translate(378,395)"/>
<path d="M0 0 C1.1875 1.625 1.1875 1.625 2 4 C0.625 7.25 0.625 7.25 -1 10 C-1.66 10 -2.32 10 -3 10 C-2.67 7.36 -2.34 4.72 -2 2 C-1.34 2 -0.68 2 0 2 C0 1.34 0 0.68 0 0 Z " fill="#2272BD" transform="translate(302,257)"/>
<path d="M0 0 C1.32 0.66 2.64 1.32 4 2 C3.01 2.33 2.02 2.66 1 3 C0.67 3.99 0.34 4.98 0 6 C-2.5625 7.1875 -2.5625 7.1875 -5 8 C-3.62845496 5.04590299 -2.01136276 2.55991624 0 0 Z " fill="#4A79AB" transform="translate(96,130)"/>
<path d="M0 0 C2.64 0.33 5.28 0.66 8 1 C8.33 1.99 8.66 2.98 9 4 C4.545 4.495 4.545 4.495 0 5 C0.66 4.67 1.32 4.34 2 4 C2 3.01 2 2.02 2 1 C1.34 0.67 0.68 0.34 0 0 Z " fill="#4F93D3" transform="translate(134,313)"/>
<path d="M0 0 C1.440578 2.85508218 2.84334242 5.72317245 4.1875 8.625 C4.55230469 9.40101563 4.91710937 10.17703125 5.29296875 10.9765625 C5.52628906 11.64429688 5.75960937 12.31203125 6 13 C5.67 13.66 5.34 14.32 5 15 C1.5400423 12.32639632 0.93027761 9.15046933 0 5 C-0.125 2.0625 -0.125 2.0625 0 0 Z " fill="#6EA2D1" transform="translate(231,282)"/>
<path d="M0 0 C2.13586678 3.20380017 2.23132175 4.01939967 2.125 7.6875 C2.10695312 8.49574219 2.08890625 9.30398438 2.0703125 10.13671875 C2.04710937 10.75160156 2.02390625 11.36648438 2 12 C-0.25900493 9.74099507 -0.34458029 9.05816925 -0.6875 6 C-0.77386719 5.29875 -0.86023438 4.5975 -0.94921875 3.875 C-1 2 -1 2 0 0 Z " fill="#5390C9" transform="translate(132,263)"/>
<path d="M0 0 C4.7517398 0.43197635 6.92000054 1.32769295 10 5 C6.7 4.34 3.4 3.68 0 3 C0 2.01 0 1.02 0 0 Z " fill="#699ECB" transform="translate(238,195)"/>
<path d="M0 0 C-0.99 0.66 -1.98 1.32 -3 2 C-3 1.34 -3 0.68 -3 0 C-5.97065509 0.34227572 -5.97065509 0.34227572 -9 1 C-9.33 1.66 -9.66 2.32 -10 3 C-10.66 2.01 -11.32 1.02 -12 0 C-7.89962722 -3.07527959 -4.53236941 -1.35971082 0 0 Z " fill="#4276AA" transform="translate(318,68)"/>
<path d="M0 0 C0.33 0 0.66 0 1 0 C1.125 2.875 1.125 2.875 1 6 C0.34 6.66 -0.32 7.32 -1 8 C-1.64767793 10.57061311 -1.64767793 10.57061311 -2 13 C-2.33 13 -2.66 13 -3 13 C-3.31563182 7.73946963 -2.66590937 4.55426184 0 0 Z " fill="#3C73B2" transform="translate(59,256)"/>
<path d="M0 0 C2.58926331 2.58926331 2.37398043 4.02705279 2.625 7.625 C2.69976562 8.62789062 2.77453125 9.63078125 2.8515625 10.6640625 C2.90054687 11.43492187 2.94953125 12.20578125 3 13 C2.34 13 1.68 13 1 13 C0.29826347 8.61414671 -0.10834375 4.44209357 0 0 Z " fill="#5C89B1" transform="translate(439,205)"/>
<path d="M0 0 C-0.33 0.99 -0.66 1.98 -1 3 C-4.3 3 -7.6 3 -11 3 C-11.33 2.34 -11.66 1.68 -12 1 C-10.37512529 0.83211627 -8.75009558 0.66573213 -7.125 0.5 C-6.22007812 0.4071875 -5.31515625 0.314375 -4.3828125 0.21875 C-2 0 -2 0 0 0 Z " fill="#6F9EC7" transform="translate(387,173)"/>
<path d="M0 0 C-0.33 0.99 -0.66 1.98 -1 3 C-5.95 3 -10.9 3 -16 3 C-11.23513188 -0.17657874 -5.6216797 -0.17567749 0 0 Z " fill="#5F87AD" transform="translate(226,58)"/>
<path d="M0 0 C0.99 0.33 1.98 0.66 3 1 C0.75 3.5625 0.75 3.5625 -2 6 C-4.3125 5.8125 -4.3125 5.8125 -6 5 C-1.60546875 0.99609375 -1.60546875 0.99609375 0 0 Z " fill="#4482BF" transform="translate(173,302)"/>
<path d="M0 0 C0.66 0.33 1.32 0.66 2 1 C1.39009109 4.55780196 0.4216319 7.6828589 -1 11 C-3 7.25 -3 7.25 -3 5 C-2.01 5 -1.02 5 0 5 C0 3.35 0 1.7 0 0 Z " fill="#5891C8" transform="translate(338,221)"/>
<path d="M0 0 C3 1 3 1 5 4 C4.67 4.99 4.34 5.98 4 7 C2.35 6.01 0.7 5.02 -1 4 C-0.67 2.68 -0.34 1.36 0 0 Z " fill="#1A73C2" transform="translate(162,194)"/>
<path d="M0 0 C0.66 0.33 1.32 0.66 2 1 C1.67 2.65 1.34 4.3 1 6 C-1.31 5.34 -3.62 4.68 -6 4 C-3.94766315 1.7522025 -2.99332739 0.9977758 0 0 Z " fill="#5393CB" transform="translate(160,194)"/>
<path d="M0 0 C2.3125 0.8125 2.3125 0.8125 4 2 C2.35 2.66 0.7 3.32 -1 4 C-1 4.66 -1 5.32 -1 6 C-1.99 6 -2.98 6 -4 6 C-4.33 5.01 -4.66 4.02 -5 3 C-2.75 1.375 -2.75 1.375 0 0 Z " fill="#428BC8" transform="translate(136,179)"/>
<path d="M0 0 C0.66 0 1.32 0 2 0 C1.67 4.29 1.34 8.58 1 13 C0.67 13 0.34 13 0 13 C-0.19551338 11.39679026 -0.38111983 9.79237014 -0.5625 8.1875 C-0.71912109 6.84751953 -0.71912109 6.84751953 -0.87890625 5.48046875 C-1 3 -1 3 0 0 Z " fill="#6A9DC8" transform="translate(192,250)"/>
<path d="M0 0 C1.43088528 2.86177057 0.59991697 4.93375773 0 8 C-0.66 8 -1.32 8 -2 8 C-2 8.99 -2 9.98 -2 11 C-2.99 11.33 -3.98 11.66 -5 12 C-3.68938409 7.76570244 -2.05643741 3.92592596 0 0 Z " fill="#679CCB" transform="translate(357,232)"/>
<path d="M0 0 C2.49310643 3.73965964 2.0603261 5.29070641 1.625 9.6875 C1.51414063 10.86699219 1.40328125 12.04648438 1.2890625 13.26171875 C1.19367188 14.16535156 1.09828125 15.06898438 1 16 C0.67 16 0.34 16 0 16 C-0.1958009 14.08416353 -0.38132214 12.16727461 -0.5625 10.25 C-0.66691406 9.18265625 -0.77132812 8.1153125 -0.87890625 7.015625 C-0.98560074 4.35858796 -0.81930395 2.50039428 0 0 Z " fill="#689CCF" transform="translate(194,232)"/>
<path d="M0 0 C1.65 0 3.3 0 5 0 C2.27521226 3.36591427 -1.06856792 4.44226276 -5 6 C-5 5.01 -5 4.02 -5 3 C-4.360625 2.87625 -3.72125 2.7525 -3.0625 2.625 C-2.0415625 2.315625 -2.0415625 2.315625 -1 2 C-0.67 1.34 -0.34 0.68 0 0 Z " fill="#0E5CA7" transform="translate(160,89)"/>
<path d="M0 0 C0 0.66 0 1.32 0 2 C-6.625 2.25 -6.625 2.25 -10 0 C-6.30458414 -0.95024979 -3.69541586 -0.95024979 0 0 Z " fill="#4471A7" transform="translate(266,442)"/>
<path d="M0 0 C2.5 2.3125 2.5 2.3125 5 5 C5 5.99 5 6.98 5 8 C3.0625 7.375 3.0625 7.375 1 6 C0.25 2.875 0.25 2.875 0 0 Z " fill="#679BCE" transform="translate(239,301)"/>
<path d="M0 0 C-5.41538462 3.07692308 -5.41538462 3.07692308 -8.375 2.6875 C-9.179375 2.3471875 -9.179375 2.3471875 -10 2 C-9.67 1.34 -9.34 0.68 -9 0 C-5.65506316 -0.99444068 -3.31044803 -1.10348268 0 0 Z " fill="#6198CC" transform="translate(168,283)"/>
<path d="M0 0 C2.31 0.33 4.62 0.66 7 1 C6.67 1.99 6.34 2.98 6 4 C5.01 4.33 4.02 4.66 3 5 C3 4.34 3 3.68 3 3 C2.34 2.67 1.68 2.34 1 2 C0.67 1.34 0.34 0.68 0 0 Z " fill="#165394" transform="translate(326,74)"/>
<path d="M0 0 C0.99 0 1.98 0 3 0 C2.75 2.375 2.75 2.375 2 5 C-0.0625 6.3125 -0.0625 6.3125 -2 7 C-2 5.68 -2 4.36 -2 3 C-1.34 2.67 -0.68 2.34 0 2 C0 1.34 0 0.68 0 0 Z " fill="#1F71BC" transform="translate(299,270)"/>
<path d="M0 0 C1.40907283 2.81814566 0.50872691 4.17277204 -0.4375 7.125 C-0.72496094 8.03507813 -1.01242188 8.94515625 -1.30859375 9.8828125 C-1.53675781 10.58148438 -1.76492187 11.28015625 -2 12 C-2.33 12 -2.66 12 -3 12 C-4.05699482 6.71502591 -4.05699482 6.71502591 -4 4 C-2.0625 1.5 -2.0625 1.5 0 0 Z " fill="#71A1CD" transform="translate(111,218)"/>
<path d="M0 0 C3.2542015 2.83430453 4.5206753 4.68607774 5 9 C2.5 6.75 2.5 6.75 0 4 C0 2.68 0 1.36 0 0 Z " fill="#5B93C4" transform="translate(248,200)"/>
<path d="M0 0 C0 3.20395416 -0.74335022 5.09399739 -2 8 C-2.66 7.67 -3.32 7.34 -4 7 C-4 5.35 -4 3.7 -4 2 C-2.68 1.34 -1.36 0.68 0 0 Z " fill="#5F93CC" transform="translate(350,198)"/>
<path d="M0 0 C0.33 0.99 0.66 1.98 1 3 C0.01 3.495 0.01 3.495 -1 4 C-0.67 2.68 -0.34 1.36 0 0 Z M-3 4 C-2.34 4 -1.68 4 -1 4 C-2.04874998 6.62187494 -2.64931313 7.79371361 -5.125 9.25 C-5.74375 9.4975 -6.3625 9.745 -7 10 C-5.7260411 7.96166576 -4.38938077 5.96147874 -3 4 Z " fill="#1162AE" transform="translate(393,360)"/>
<path d="M0 0 C0.66 0 1.32 0 2 0 C2 1.65 2 3.3 2 5 C1.01 5.33 0.02 5.66 -1 6 C-1.625 4.125 -1.625 4.125 -2 2 C-1.34 1.34 -0.68 0.68 0 0 Z " fill="#195295" transform="translate(427,321)"/>
<path d="M0 0 C0.66 0.66 1.32 1.32 2 2 C1.625 5.625 1.625 5.625 1 9 C0.34 9 -0.32 9 -1 9 C-0.67 6.03 -0.34 3.06 0 0 Z " fill="#518AC7" transform="translate(301,250)"/>
<path d="M0 0 C0.66 0 1.32 0 2 0 C2.33 1.65 2.66 3.3 3 5 C1.68 5.33 0.36 5.66 -1 6 C-1.042721 4.33388095 -1.04063832 2.66617115 -1 1 C-0.67 0.67 -0.34 0.34 0 0 Z " fill="#5A8DC0" transform="translate(308,221)"/>
<path d="M0 0 C0 0.99 0 1.98 0 3 C-0.66 3 -1.32 3 -2 3 C-2.33 3.99 -2.66 4.98 -3 6 C-4.5 4.625 -4.5 4.625 -6 3 C-6 2.34 -6 1.68 -6 1 C-3.92446352 0.4465236 -2.15634036 0 0 0 Z " fill="#4F89C6" transform="translate(131,186)"/>
<path d="M0 0 C0.33 0.66 0.66 1.32 1 2 C1.99 2.33 2.98 2.66 4 3 C3.01 3.66 2.02 4.32 1 5 C0.34 5.99 -0.32 6.98 -1 8 C-1.93065133 5.39417629 -2.14917407 4.35801776 -1.0625 1.75 C-0.711875 1.1725 -0.36125 0.595 0 0 Z " fill="#5283B2" transform="translate(74,164)"/>
<path d="M0 0 C1.16945792 0.80847729 2.33550461 1.62189112 3.5 2.4375 C4.47453125 3.11619141 4.47453125 3.11619141 5.46875 3.80859375 C5.9740625 4.20175781 6.479375 4.59492187 7 5 C7 5.33 7 5.66 7 6 C5.35 6 3.7 6 2 6 C1.34 4.02 0.68 2.04 0 0 Z " fill="#4476A3" transform="translate(362,91)"/>
<path d="M0 0 C-1 3 -1 3 -2.875 4.25 C-5 5 -5 5 -8 4 C-3.375 0 -3.375 0 0 0 Z " fill="#4C77AA" transform="translate(144,88)"/>
<path d="M0 0 C1.98 0 3.96 0 6 0 C6 0.66 6 1.32 6 2 C4.1875 3.6875 4.1875 3.6875 2 5 C1.01 4.67 0.02 4.34 -1 4 C-0.01 3.01 0.98 2.02 2 1 C1.34 0.67 0.68 0.34 0 0 Z " fill="#155494" transform="translate(190,66)"/>
<path d="M0 0 C1.32 0.33 2.64 0.66 4 1 C3.67 2.65 3.34 4.3 3 6 C1.5 4.6875 1.5 4.6875 0 3 C0 2.01 0 1.02 0 0 Z " fill="#3F6A9B" transform="translate(82,347)"/>
<path d="M0 0 C0.99 0.33 1.98 0.66 3 1 C2.34 2.65 1.68 4.3 1 6 C0.34 6 -0.32 6 -1 6 C-1.625 4.125 -1.625 4.125 -2 2 C-1.34 1.34 -0.68 0.68 0 0 Z " fill="#396C9F" transform="translate(416,345)"/>
<path d="M0 0 C0.99 0.33 1.98 0.66 3 1 C2.34 3.31 1.68 5.62 1 8 C0.34 7.67 -0.32 7.34 -1 7 C-0.67 4.69 -0.34 2.38 0 0 Z " fill="#1C5390" transform="translate(66,304)"/>
<path d="M0 0 C0.33 0 0.66 0 1 0 C1.125 2.875 1.125 2.875 1 6 C0.34 6.66 -0.32 7.32 -1 8 C-1.625 5.125 -1.625 5.125 -2 2 C-1.34 1.34 -0.68 0.68 0 0 Z " fill="#1976CA" transform="translate(262,275)"/>
<path d="M0 0 C0.66 0.99 1.32 1.98 2 3 C1.1875 4.9375 1.1875 4.9375 0 7 C-0.99 7.33 -1.98 7.66 -3 8 C-1.125 2.25 -1.125 2.25 0 0 Z " fill="#649ED3" transform="translate(344,260)"/>
<path d="M0 0 C0.33 0 0.66 0 1 0 C1 2.64 1 5.28 1 8 C0.01 7.67 -0.98 7.34 -2 7 C-1.34 4.69 -0.68 2.38 0 0 Z " fill="#2173BB" transform="translate(252,209)"/>
<path d="M0 0 C2.50298434 2.93828597 3.46930939 5.17902761 4 9 C2.0625 8.3125 2.0625 8.3125 0 7 C-0.93580311 4.12060581 -1.37245106 2.74490212 0 0 Z " fill="#6691B9" transform="translate(427,169)"/>
</svg>
